<svg width="32" height="32" fill="none" xmlns="http://www.w3.org/2000/svg">
  <path d="M31 21.5a9.024 9.024 0 0 0-1.5-4.532V2.81a1.509 1.509 0 0 0-2.17-1.342L16.052 7.105A1 1 0 0 0 15.5 8v4H11v-2a1 1 0 0 0-2 0v2H4a1.502 1.502 0 0 0-1.5 1.5V29H2a1 1 0 0 0 0 2h28a1 1 0 0 0 0-2h-2.5v-3.116A4.505 4.505 0 0 0 31 21.5ZM26.5 24a2.503 2.503 0 0 1-2.5-2.5c0-1.67 1.42-4.5 2.5-4.5s2.5 2.83 2.5 4.5a2.503 2.503 0 0 1-2.5 2.5Zm-22-10h11v15h-11V14Zm13 15V8.618l10-5v11.578c-3.26-1.258-5.517 3.81-5.5 6.304a4.505 4.505 0 0 0 3.5 4.384V29h-8Z" fill="#000"/>
  <path d="M7.5 16a1 1 0 0 0-1 1v6a1 1 0 1 0 2 0v-6a1 1 0 0 0-1-1ZM20.5 9.5a1 1 0 0 0-1 1V16a1 1 0 0 0 2 0v-5.5a1 1 0 0 0-1-1ZM7.5 25a1 1 0 0 0 0 2 1 1 0 0 0 0-2Z" fill="#000"/>
</svg>
