<svg width="123" height="51" fill="none" xmlns="http://www.w3.org/2000/svg">
  <g clip-path="url(#a)" fill="#59BC73">
    <path d="m26.696 16.32-4.337-3.612V9.797a.844.844 0 1 0-1.687 0v1.502L15.12 6.675a2.531 2.531 0 0 0-3.24 0L.304 16.32a.845.845 0 1 0 1.08 1.3L12.96 7.97a.844.844 0 0 1 1.08 0l9.585 7.986V30.47a.844.844 0 0 1-.844.843h-4.218v-9.28A2.531 2.531 0 0 0 16.03 19.5H10.97a2.531 2.531 0 0 0-2.532 2.531v9.282H4.22a.843.843 0 0 1-.844-.844V20.344a.844.844 0 1 0-1.688 0v10.125A2.531 2.531 0 0 0 4.22 33H22.78a2.531 2.531 0 0 0 2.532-2.531V17.365l.303.254a.844.844 0 0 0 1.026.04.844.844 0 0 0 .054-1.34ZM10.125 31.311v-9.28a.844.844 0 0 1 .844-.845h5.062a.844.844 0 0 1 .844.844v9.282h-6.75Z"/>
    <path d="M12.656 27.094a.844.844 0 1 0 0-1.688.844.844 0 0 0 0 1.688Z"/>
  </g>
  <path d="M61.337 25.496H57.08V31h-3.103v-5.504H41.529v-2.24L52.983 8.6h3.456L45.465 22.744h8.607V17.88h3.008v4.864h4.257v2.752Zm8.224-7.968c3.2 0 5.547.608 7.04 1.824 1.515 1.195 2.272 2.837 2.272 4.928 0 1.323-.32 2.517-.96 3.584-.619 1.045-1.568 1.877-2.848 2.496-1.259.597-2.816.896-4.672.896-1.579 0-3.104-.235-4.576-.704-1.472-.49-2.688-1.163-3.648-2.016l1.472-2.528c.768.725 1.75 1.312 2.944 1.76 1.195.427 2.453.64 3.776.64 1.685 0 2.987-.352 3.904-1.056.939-.725 1.408-1.707 1.408-2.944 0-1.344-.512-2.357-1.536-3.04-1.024-.704-2.773-1.056-5.248-1.056h-5.088L64.985 8.6h12.64v2.784h-9.952l-.608 6.144h2.496Zm21.127 13.728c-1.77 0-3.35-.448-4.736-1.344-1.365-.917-2.443-2.24-3.232-3.968-.79-1.728-1.184-3.776-1.184-6.144 0-2.368.395-4.416 1.184-6.144.79-1.728 1.867-3.04 3.232-3.936 1.387-.917 2.965-1.376 4.736-1.376 1.75 0 3.307.459 4.672 1.376 1.387.896 2.475 2.208 3.264 3.936.79 1.728 1.184 3.776 1.184 6.144 0 2.368-.395 4.416-1.184 6.144-.79 1.728-1.877 3.05-3.264 3.968-1.365.896-2.923 1.344-4.672 1.344Zm0-2.848c1.792 0 3.221-.736 4.288-2.208 1.088-1.472 1.632-3.605 1.632-6.4 0-2.795-.544-4.928-1.632-6.4-1.067-1.472-2.496-2.208-4.288-2.208-1.813 0-3.264.736-4.352 2.208-1.067 1.472-1.6 3.605-1.6 6.4 0 2.795.533 4.928 1.6 6.4 1.088 1.472 2.539 2.208 4.352 2.208Zm21.344 2.848c-1.771 0-3.35-.448-4.736-1.344-1.366-.917-2.443-2.24-3.232-3.968-.79-1.728-1.184-3.776-1.184-6.144 0-2.368.394-4.416 1.184-6.144.789-1.728 1.866-3.04 3.232-3.936 1.386-.917 2.965-1.376 4.736-1.376 1.749 0 3.306.459 4.672 1.376 1.386.896 2.474 2.208 3.264 3.936.789 1.728 1.184 3.776 1.184 6.144 0 2.368-.395 4.416-1.184 6.144-.79 1.728-1.878 3.05-3.264 3.968-1.366.896-2.923 1.344-4.672 1.344Zm0-2.848c1.792 0 3.221-.736 4.288-2.208 1.088-1.472 1.632-3.605 1.632-6.4 0-2.795-.544-4.928-1.632-6.4-1.067-1.472-2.496-2.208-4.288-2.208-1.814 0-3.264.736-4.352 2.208-1.067 1.472-1.6 3.605-1.6 6.4 0 2.795.533 4.928 1.6 6.4 1.088 1.472 2.538 2.208 4.352 2.208Z" fill="#59BC73"/>
  <defs>
    <clipPath id="a">
      <path fill="#fff" transform="translate(0 6)" d="M0 0h27v27H0z"/>
    </clipPath>
  </defs>
</svg>
