<svg width="74" height="51" fill="none" xmlns="http://www.w3.org/2000/svg">
  <g clip-path="url(#a)" fill="#59BC73">
    <path d="M22.041 21.85a.365.365 0 0 1-.364-.365V20.4a.365.365 0 0 1 .73 0v1.084a.365.365 0 0 1-.366.365ZM22.041 18.212a.365.365 0 0 1-.364-.365v-1.062a.365.365 0 0 1 .73 0v1.062a.365.365 0 0 1-.366.365Z"/>
    <path fill-rule="evenodd" clip-rule="evenodd" d="M0 30.574c0-.466.378-.844.844-.844h9.966a.844.844 0 1 1 0 1.688H.845A.844.844 0 0 1 0 30.574Zm20.355 0c0-.466.378-.844.844-.844h4.957a.844.844 0 1 1 0 1.688H21.2a.844.844 0 0 1-.844-.844Z"/>
    <path fill-rule="evenodd" clip-rule="evenodd" d="m19.872 8.492-7.12-.728a.95.95 0 0 0-1.045.945V30.35a.95.95 0 0 0 1.124.933l7.894-1.478V9.436a.95.95 0 0 0-.853-.944Zm-6.948-2.406a2.637 2.637 0 0 0-2.904 2.623V30.35c0 1.65 1.499 2.896 3.122 2.592l7.98-1.494a1.582 1.582 0 0 0 1.29-1.555V9.436a2.637 2.637 0 0 0-2.369-2.623l-7.119-.727Z"/>
    <path d="M14.238 21.451a.844.844 0 0 0-1.687 0v.844a.844.844 0 1 0 1.687 0v-.844Z"/>
    <path fill-rule="evenodd" clip-rule="evenodd" d="M3.797 12.17a4.008 4.008 0 0 1 4.008-4.008h3.058V9.85H7.805a2.32 2.32 0 0 0-2.32 2.32v4.245a.844.844 0 1 1-1.688 0V12.17Zm.844 7.172c.466 0 .843.378.843.844v9.597H3.797v-9.598c0-.465.378-.843.844-.843Z"/>
  </g>
  <path d="M48.886 8.6V31h-3.168V11.384h-5.056V8.6h8.224Zm14.052 22.656c-1.77 0-3.35-.448-4.736-1.344-1.365-.917-2.443-2.24-3.232-3.968-.79-1.728-1.184-3.776-1.184-6.144 0-2.368.395-4.416 1.184-6.144.79-1.728 1.867-3.04 3.232-3.936 1.387-.917 2.965-1.376 4.736-1.376 1.75 0 3.307.459 4.672 1.376 1.387.896 2.475 2.208 3.264 3.936.79 1.728 1.184 3.776 1.184 6.144 0 2.368-.395 4.416-1.184 6.144-.79 1.728-1.877 3.05-3.264 3.968-1.365.896-2.923 1.344-4.672 1.344Zm0-2.848c1.792 0 3.221-.736 4.288-2.208 1.088-1.472 1.632-3.605 1.632-6.4 0-2.795-.544-4.928-1.632-6.4-1.067-1.472-2.496-2.208-4.288-2.208-1.813 0-3.264.736-4.352 2.208-1.067 1.472-1.6 3.605-1.6 6.4 0 2.795.533 4.928 1.6 6.4 1.088 1.472 2.539 2.208 4.352 2.208Z" fill="#59BC73"/>
  <defs>
    <clipPath id="a">
      <path fill="#fff" transform="translate(0 6)" d="M0 0h27v27H0z"/>
    </clipPath>
  </defs>
</svg>
