<svg width="517" height="264" fill="none" xmlns="http://www.w3.org/2000/svg">
  <g clip-path="url(#a)">
    <path d="M344.053 107.612h143.175c-.669-2.515-4.516-11.23-23.584-7.878 3.178-2.85 5.185-7.04 4.349-11.063-.335-1.174-.836-2.347-1.673-3.353-.836-.838-1.839-1.34-2.843-1.676-7.527-2.682-20.74 7.71-20.74 7.71 16.224-25.477-27.933-36.205-28.267-3.855 0 0-6.523-11.565-13.548-8.38-2.844 1.676-1.171 6.537.167 8.716-20.74-10.058-39.473-3.856-30.776 7.543-20.405.335-26.26 12.236-26.26 12.236ZM170 58.24h86.641c-.335-1.51-2.677-6.705-14.218-4.694 1.84-1.676 3.178-4.19 2.677-6.705-.168-.67-.502-1.508-1.004-2.011-.502-.503-1.171-.838-1.673-1.006-4.516-1.676-12.544 4.694-12.544 4.694 9.868-15.422-16.893-21.959-17.06-2.347 0 0-3.847-7.04-8.196-5.029-1.673 1.006-.669 4.023.167 5.364-12.544-6.034-23.918-2.347-18.566 4.526-12.712.167-16.224 7.207-16.224 7.207Z" fill="#fff"/>
    <path d="M331.238 26.845c6.14-6.153 6.14-16.129 0-22.282-6.14-6.153-16.095-6.153-22.235 0-6.14 6.153-6.14 16.13 0 22.282 6.14 6.153 16.095 6.153 22.235 0Z" fill="#F9AA41"/>
    <path d="M130.63 73.585h-24.755v46.095h24.755V73.585Z" fill="#fff"/>
    <path d="M105.875 85.15v4.527l24.755-2.85v-1.676h-24.755Z" fill="#9BB8CC"/>
    <path d="M133.473 79.62h-30.608v5.53h30.608v-5.53Z" fill="#133B53"/>
    <path d="M432.534 263.162h82.459c-1.171-3.687-4.182-6.705-7.527-8.046-3.68-1.508-7.694-1.173-11.541-.167.669-.168 1.673-1.509 2.175-2.012 1.17-1.341 2.174-2.681 2.341-4.358.335-2.011-.334-4.023-1.505-5.531-2.007-2.514-5.52-3.52-8.698-3.185h-.501c-.669.168-1.171.168-1.84.503-2.509 1.006-4.851 2.682-6.691 4.693-.334.336-.669.671-1.003 1.174 0 0 5.352-4.526 6.69-7.878 4.684-9.722-5.185-23.635-17.395-19.612-4.85 2.012-8.865 6.37-11.541 11.398 9.869-14.75-6.523-23.634-12.21-10.392 3.513-10.895-1.672-22.294-12.544-15.924-.167 0-.335.168-.502.168v59.169h-.167Z" fill="#479DA3"/>
    <path d="M432.534 263.162h48.672c-.669-2.179-2.508-4.023-4.516-4.693-2.174-.838-4.516-.671-6.857 0 1.171-2.179-.335-5.197-2.509-6.035-2.175-.838-4.683-.167-6.691 1.006 1.84-.838 3.178-2.682 3.847-4.693 2.677-5.699-3.01-13.913-10.202-11.566-2.844 1.173-5.185 3.688-6.858 6.705 5.854-8.716-3.847-13.913-7.192-6.202 3.345-8.549-3.011-13.577-7.694-11.566v37.044Z" fill="#7BBFBA"/>
    <path d="M482.879 216.564c-1.338 1.173-3.178 1.006-3.178 1.006s.167-2.012 1.505-3.185c1.339-1.173 3.178-1.006 3.178-1.006s-.167 2.012-1.505 3.185Z" fill="#479DA3"/>
    <path d="M445.413 230.309c-1.004 1.676-3.011 2.347-3.011 2.347s-.502-2.347.502-4.023c1.003-1.676 3.011-2.347 3.011-2.347s.501 2.179-.502 4.023Z" fill="#7BBFBA"/>
    <path d="M479.032 212.038c.502 2.515-.669 5.029-.669 5.029s-2.174-1.509-2.676-4.023c-.502-2.514.669-5.028.669-5.028s2.007 1.508 2.676 4.022Z" fill="#479DA3"/>
    <path d="m39.139 262.994 1.17-18.438-10.202-11.733.669-.503 6.021 5.029.837-5.029 1.003.168-.167 6.369 2.509 2.514.836-18.94-5.018-6.202.67-.336 5.184 4.023.335-9.722h1.338l.836 12.069 1.338 12.068 6.69-7.375.67.335-2.51 3.856h4.35v.67l-4.684.838-4.683 7.208 1.004 23.131h-8.196Z" fill="#994F61"/>
    <path d="M82.46 196.282c0-2.346-.168-4.693-1.004-6.705-1.004-2.011-2.844-3.855-5.186-4.19-1.338-.168-2.843.168-3.512 1.173 2.509-3.184 4.85-6.704 5.854-10.727 1.004-4.023.502-8.549-2.174-11.566-2.51-3.017-6.69-4.358-10.705-3.688-3.847.503-7.36 2.85-10.036 5.867.335-6.202 1.673-12.404.502-18.438-1.17-6.034-5.854-12.069-12.042-11.901-4.182.168-7.694 3.185-10.37 6.369-5.52 6.705-8.865 15.086-9.534 23.802-1.673-2.179-3.178-4.358-5.353-6.034-2.174-1.676-4.85-2.849-7.526-2.347-4.35.671-7.193 5.197-8.363 9.555-1.171 4.693-1.004 9.554.501 14.08 2.342 7.543 8.029 13.577 13.549 19.108-2.51-1.173-5.687.336-6.858 2.85-1.673 3.352 0 7.207 2.174 9.889 2.007 2.179 4.516 3.856 7.192 5.196 14.72 7.376 32.783 6.37 47.67-.167 5.519-2.347 9.366-6.37 12.377-11.733 2.007-3.018 2.843-6.705 2.843-10.393ZM34.957 227.627c-.669-.838-2.676-1.174-2.676.335-.669-4.526-6.523-2.849-3.68 1.509-4.516-4.694-8.53 1.341-2.676 4.022-5.018.168-2.174 7.208 2.175 4.191-1.84 1.006-.67 3.352 1.338 3.185 5.018-1.006 10.203-9.052 5.52-13.242Z" fill="#479DA3"/>
    <path d="M26.093 214.217c-.335-1.173-.67-2.514-.502-3.687.167-1.341.836-2.514 2.007-3.017a2.471 2.471 0 0 1 2.174 0c-1.84-1.341-3.68-2.85-4.85-4.694-1.171-2.011-1.673-4.358-.67-6.537.837-2.011 2.844-3.352 5.018-3.687 2.175-.336 4.35.335 6.19 1.508-1.172-3.185-2.844-6.369-3.179-9.722-.334-3.352 1.171-7.375 4.516-8.213 2.175-.503 4.516.503 6.523 1.676 4.014 2.682 7.193 6.537 8.865 11.063.502-1.509 1.004-2.85 1.84-4.191.836-1.173 2.174-2.179 3.68-2.514 2.509-.335 4.683 1.676 5.854 3.688a15.44 15.44 0 0 1 2.007 7.543c0 4.358-2.175 8.381-4.182 12.403 1.171-1.005 3.011-.67 4.182.336 1.338 1.508 1.17 3.855.334 5.531-.669 1.509-1.84 2.85-3.01 3.855-6.69 6.37-16.392 8.717-25.424 7.543-3.345-.335-6.021-1.844-8.363-4.19-1.338-1.006-2.341-2.682-3.01-4.694Z" fill="#7BBFBA"/>
    <path d="M9.367 198.796c.836 1.509.334 3.52.334 3.52s-1.84-.67-2.676-2.179c-.836-1.508-.335-3.52-.335-3.52s1.84.671 2.677 2.179ZM4.181 202.149c2.342-.168 4.517 1.676 4.517 1.676s-1.84 2.012-4.182 2.179C2.174 206.172 0 204.328 0 204.328s1.84-2.179 4.181-2.179ZM57.203 233.326c-.837-.335-1.338-1.341-1.338-1.341s1.003-.335 1.84 0c.836.335 1.338 1.341 1.338 1.341s-1.004.335-1.84 0ZM58.206 230.309c-1.003.838-2.341.838-2.341.838s.167-1.508 1.003-2.347c1.004-.838 2.342-.838 2.342-.838s0 1.509-1.004 2.347Z" fill="#479DA3"/>
    <path d="M57.036 179.52c-1.171 1.341-3.178 1.341-3.178 1.341s0-2.011 1.17-3.185c1.171-1.341 3.178-1.341 3.178-1.341s0 2.012-1.17 3.185ZM27.263 189.578c1.171.502 1.673 1.676 1.673 1.676s-1.338.503-2.342.167c-1.17-.502-1.672-1.676-1.672-1.676s1.17-.503 2.341-.167ZM52.352 175.665c.837 2.347-.167 4.693-.167 4.693s-2.509-1.173-3.345-3.52c-.836-2.346.167-4.693.167-4.693s2.509 1.173 3.345 3.52ZM32.114 238.019h-1.338c-.67 0-1.171-.335-1.673-.838-.334-.335-.502-1.005-.334-1.508.334-.671 1.17-.503 1.672-1.174.168-.335.168-.67.168-1.173 0-.335-.168-.838 0-1.173.167-.336.501-.671.836-.671.334 0 .502.335.669.503.167.168.335.168.502.168.669 0 .836-1.006 1.672-1.006.837.168 1.171 1.006 1.506 1.676.334 1.173.167 2.514-.67 3.52-.836 1.174-2.007 1.509-3.01 1.676Z" fill="#7BBFBA"/>
    <path d="m347.231 58.834-175.622-3.017-101.862 98.058h376l-98.516-95.04Z" fill="#133B53"/>
    <path d="M437.05 153.875H322.979v102.247H437.05V153.875Z" fill="#fff"/>
    <path d="M437.05 153.875h-12.545v102.247h12.545V153.875ZM335.523 153.875h-12.544v102.247h12.544V153.875Z" fill="#F43D4F"/>
    <path d="M424.505 168.792h-89.149v1.341h89.149v-1.341ZM424.505 183.208h-89.149v1.34h89.149v-1.34ZM424.505 197.623h-89.149v1.341h89.149v-1.341ZM424.505 212.038h-89.149v1.341h89.149v-1.341ZM424.505 226.454h-89.149v1.341h89.149v-1.341ZM424.505 240.701h-89.149v1.341h89.149v-1.341Z" fill="#E1ECEF"/>
    <path d="M335.523 168.792h-12.544v1.341h12.544v-1.341ZM335.523 183.208h-12.544v1.34h12.544v-1.34ZM335.523 197.623h-12.544v1.341h12.544v-1.341ZM335.523 212.038h-12.544v1.341h12.544v-1.341ZM335.523 226.454h-12.544v1.341h12.544v-1.341ZM335.523 240.701h-12.544v1.341h12.544v-1.341ZM437.05 168.792h-12.545v1.341h12.545v-1.341ZM437.05 183.208h-12.545v1.34h12.545v-1.34ZM437.05 197.623h-12.545v1.341h12.545v-1.341ZM437.05 212.038h-12.545v1.341h12.545v-1.341ZM437.05 226.454h-12.545v1.341h12.545v-1.341ZM437.05 240.701h-12.545v1.341h12.545v-1.341Z" fill="#B72E41"/>
    <path d="M192.516 153.875H78.445v102.247h114.071V153.875Z" fill="#fff"/>
    <path d="M191.512 168.792H78.445v1.341h113.067v-1.341ZM191.512 183.208H78.445v1.34h113.067v-1.34ZM191.512 197.623H78.445v1.341h113.067v-1.341ZM191.512 212.038H78.445v1.341h113.067v-1.341ZM191.512 226.454H78.445v1.341h113.067v-1.341ZM191.512 240.701H78.445v1.341h113.067v-1.341Z" fill="#E1ECEF"/>
    <path d="M173.114 174.995h-75.1v81.295h75.1v-81.295Z" fill="#F43D4F"/>
    <path d="m173.114 178.515-75.1 12.236v-15.756h75.1v3.52Z" fill="#B72E41"/>
    <path d="M192.683 256.29h-5.017l3.01-102.415h2.007V256.29Z" fill="#9BB8CC"/>
    <path d="M192.683 155.551 78.445 161.92v-8.045h114.238v1.676ZM335.356 153.875v7.375l89.149-5.029v-2.346h-89.149Z" fill="#9BB8CC"/>
    <path d="M424.505 153.875v2.346l12.545-.67v-1.676h-12.545ZM322.979 153.875v8.045l12.377-.67v-7.375h-12.377Z" fill="#B72E41"/>
    <path d="M322.979 256.29H192.683V97.22l65.064-50.957 65.232 50.956V256.29Z" fill="#fff"/>
    <path d="M257.747 46.263 192.683 97.22v11.566l62.054-48.274 68.242 53.47V97.219l-65.232-50.956Z" fill="#9BB8CC"/>
    <path d="m333.349 98.56-75.602-56.823-75.434 57.326 7.36 7.375 68.074-53.135 67.908 52.968 7.694-7.71Z" fill="#fff"/>
    <path d="M440.73 256.29H71.085v7.04H440.73v-7.04Z" fill="#7BBFBA"/>
    <path d="M160.737 192.595h-50.178v63.695h50.178v-63.695Z" fill="#fff"/>
    <path d="M133.808 195.444h-19.57v57.158h19.57v-57.158ZM156.89 195.444h-19.57v57.158h19.57v-57.158Z" fill="#133B53"/>
    <path d="M160.737 191.589h-51.182l-.669 64.701h1.673v-63.695h50.178v-1.006Z" fill="#B72E41"/>
    <path d="M415.641 192.595h-71.755v43.245h71.755v-43.245Z" fill="#fff"/>
    <path d="M359.274 195.444h-12.043v37.044h12.043v-37.044ZM397.075 195.444h-34.289v37.044h34.289v-37.044ZM412.63 195.444h-12.043v37.044h12.043v-37.044Z" fill="#133B53"/>
    <path d="M415.641 191.924h-72.758l-.837 43.916h1.84v-43.245h71.755v-.671Z" fill="#9BB8CC"/>
    <path d="M343.886 235.505h71.755v1.006l-73.595 3.017v-4.023h1.84Z" fill="#9BB8CC"/>
    <path d="M232.826 195.444h-19.57v57.158h19.57v-57.158ZM256.075 195.444h-19.57v57.158h19.57v-57.158ZM279.157 195.444h-19.57v57.158h19.57v-57.158ZM302.238 195.444h-19.569v57.158h19.569v-57.158Z" fill="#133B53"/>
    <path d="M304.58 191.924h-96.007l-1.505 64.366h3.01v-63.695h94.502v-.671Z" fill="#9BB8CC"/>
    <path d="M256.075 98.225h-19.57v57.158h19.57V98.225ZM279.157 98.225h-19.57v57.158h19.57V98.225Z" fill="#133B53"/>
    <path d="M282.335 94.705h-50.513l-1.505 64.198h3.01V95.208h49.008v-.503Z" fill="#9BB8CC"/>
    <path d="M309.096 158.568h-102.53v5.196h102.53v-5.196Z" fill="#133B53"/>
    <path d="M309.096 163.764h-102.53v-5.196l-4.014 5.196v5.029l106.544-3.856v-1.173Z" fill="#9BB8CC"/>
    <path d="M212.755 144.153h-1.673v14.415h1.673v-14.415ZM268.285 144.153h-1.673v14.415h1.673v-14.415ZM249.719 144.153h-1.673v14.415h1.673v-14.415ZM286.683 144.153h-1.672v14.415h1.672v-14.415ZM231.153 144.153h-1.673v14.415h1.673v-14.415ZM305.249 144.153h-1.672v14.415h1.672v-14.415Z" fill="#7BBFBA"/>
    <path d="M212.755 144.153h-1.673v1.341h1.673v-1.341ZM268.285 144.153h-1.673v1.341h1.673v-1.341ZM249.719 144.153h-1.673v1.341h1.673v-1.341ZM286.683 144.153h-1.672v1.341h1.672v-1.341ZM231.153 144.153h-1.673v1.341h1.673v-1.341ZM305.249 144.153h-1.672v1.341h1.672v-1.341Z" fill="#4A938C"/>
    <path d="M306.754 144.152H208.74v-3.687l98.014.838v2.849Z" fill="#7BBFBA"/>
    <path d="M75.936 248.747H18.9v2.179h57.036v-2.179ZM75.936 257.63H18.9v2.179h57.036v-2.179Z" fill="#B6CCD8"/>
    <path d="M24.922 262.994h-3.847c-.168 0-.502-.167-.502-.335v-16.594c0-.168 0-.168.167-.168l2.007-2.346a.507.507 0 0 1 .67 0l2.006 2.346.168.168v16.594c-.335.168-.502.335-.67.335ZM32.95 262.994h-3.847c-.167 0-.502-.167-.502-.335v-16.594c0-.168 0-.168.168-.168l2.007-2.346a.507.507 0 0 1 .669 0l2.007 2.346.167.168v16.594c-.167.168-.334.335-.669.335ZM40.979 262.994h-3.847c-.168 0-.502-.167-.502-.335v-16.594c0-.168 0-.168.167-.168l2.007-2.346a.507.507 0 0 1 .67 0l2.006 2.346.168.168v16.594c-.168.168-.335.335-.67.335ZM49.174 262.994h-3.846c-.168 0-.502-.167-.502-.335v-16.594c0-.168 0-.168.167-.168L47 243.551a.507.507 0 0 1 .67 0l2.006 2.346.167.168v16.594c-.334.168-.501.335-.669.335ZM57.203 262.994h-3.847c-.167 0-.502-.167-.502-.335v-16.594c0-.168 0-.168.167-.168l2.008-2.346a.507.507 0 0 1 .668 0l2.008 2.346.167.168v16.594c-.167.168-.502.335-.67.335ZM65.231 262.994h-3.847c-.167 0-.501-.167-.501-.335v-16.594c0-.168 0-.168.167-.168l2.007-2.346a.507.507 0 0 1 .669 0l2.007 2.346.167.168v16.594c-.167.168-.334.335-.669.335ZM73.427 262.994H69.58c-.167 0-.502-.167-.502-.335v-16.594c0-.168 0-.168.168-.168l2.007-2.346a.507.507 0 0 1 .669 0l2.007 2.346.167.168v16.594c-.334.168-.502.335-.669.335Z" fill="#fff"/>
    <path d="M509.139 248.747h-80.787v2.179h80.787v-2.179ZM509.139 257.63h-80.787v2.179h80.787v-2.179Z" fill="#B6CCD8"/>
    <path d="M434.541 262.994h-3.847c-.167 0-.502-.167-.502-.335v-16.594c0-.168 0-.168.167-.168l2.007-2.346a.508.508 0 0 1 .67 0l2.007 2.346.167.168v16.594c-.335.168-.502.335-.669.335ZM442.569 262.994h-3.847c-.167 0-.501-.167-.501-.335v-16.594c0-.168 0-.168.167-.168l2.007-2.346a.507.507 0 0 1 .669 0l2.007 2.346.167.168v16.594c-.334.168-.501.335-.669.335ZM450.598 262.994h-3.847c-.167 0-.502-.167-.502-.335v-16.594c0-.168 0-.168.167-.168l2.007-2.346c.168-.168.502-.168.669 0l2.008 2.346.167.168v16.594c-.167.168-.335.335-.669.335ZM458.626 262.994h-3.847c-.167 0-.501-.167-.501-.335v-16.594c0-.168 0-.168.167-.168l2.007-2.346a.507.507 0 0 1 .669 0l2.007 2.346.167.168v16.594c-.167.168-.334.335-.669.335ZM466.822 262.994h-3.847c-.167 0-.502-.167-.502-.335v-16.594c0-.168 0-.168.168-.168l2.007-2.346c.167-.168.501-.168.669 0l2.007 2.346.167.168v16.594c-.334.168-.502.335-.669.335ZM474.85 262.994h-3.846c-.168 0-.502-.167-.502-.335v-16.594c0-.168 0-.168.167-.168l2.007-2.346a.507.507 0 0 1 .669 0l2.007 2.346.168.168v16.594c-.168.168-.502.335-.67.335ZM482.879 262.994h-3.847c-.167 0-.502-.167-.502-.335v-16.594c0-.168 0-.168.167-.168l2.008-2.346c.167-.168.501-.168.669 0l2.007 2.346.167.168v16.594c-.167.168-.335.335-.669.335ZM491.075 262.994h-3.847c-.168 0-.502-.167-.502-.335v-16.594c0-.168 0-.168.167-.168l2.007-2.346c.168-.168.502-.168.669 0l2.007 2.346.168.168v16.594c-.335.168-.502.335-.669.335ZM499.103 262.994h-3.847c-.167 0-.502-.167-.502-.335v-16.594c0-.168 0-.168.168-.168l2.007-2.346a.507.507 0 0 1 .669 0l2.007 2.346.167.168v16.594c-.334.168-.502.335-.669.335ZM507.132 262.994h-3.847c-.168 0-.502-.167-.502-.335v-16.594c0-.168 0-.168.167-.168l2.007-2.346a.507.507 0 0 1 .669 0l2.007 2.346.168.168v16.594c-.168.168-.502.335-.669.335Z" fill="#fff"/>
    <path d="M517 262.324H13.548V264H517v-1.676Z" fill="#133B53"/>
  </g>
  <defs>
    <clipPath id="a">
      <path fill="#fff" d="M0 0h517v264H0z"/>
    </clipPath>
  </defs>
</svg>
