<svg width="180" height="153" fill="none" xmlns="http://www.w3.org/2000/svg">
  <path d="M19.776 96.924h4.282v22.882h-3.922v-16.213l-7.551 11.669-7.518-11.669v16.213H1.144V96.924h4.282l7.159 11.114 7.191-11.114Zm20.413.033 10.33 22.881h-4.315l-1.765-3.922-1.766-3.923-4.641-10.264-4.642 10.264h5.95l1.764 3.923h-9.48l-1.764 3.922h-4.315l10.33-22.881h4.314Zm33.282 0-8.695 11.441 8.695 11.44h-4.903l-6.243-8.204-6.244 8.204h-4.903l8.695-11.44-8.695-11.441h4.903l6.244 8.205 6.243-8.205h4.903Zm5.562.033v22.848H75.11V96.99h3.923Zm21.09-.066h4.282v22.882h-3.922v-16.213l-7.551 11.669-7.519-11.669v16.213h-3.922V96.924h4.282l7.159 11.114 7.191-11.114Zm10.672.066v22.848h-3.922V96.99h3.922Zm6.381 18.926h8.989v3.922h-12.912V96.99h3.923v18.926Zm15.581-18.926v22.848h-3.922V96.99h3.922Zm14.03 3.399a7.588 7.588 0 0 0-3.04.621c-.959.392-1.82.97-2.583 1.733a8.257 8.257 0 0 0-1.765 2.582 7.955 7.955 0 0 0-.588 3.04c0 1.068.196 2.092.588 3.073a8.28 8.28 0 0 0 1.765 2.582 7.803 7.803 0 0 0 2.583 1.732 7.937 7.937 0 0 0 3.04.589 7.941 7.941 0 0 0 3.04-.589 7.722 7.722 0 0 0 2.615-1.732 7.825 7.825 0 0 0 1.732-2.582 8.205 8.205 0 0 0 .588-3.073 7.804 7.804 0 0 0-2.32-5.622 7.725 7.725 0 0 0-2.615-1.733 7.591 7.591 0 0 0-3.04-.621Zm0-3.922c1.634 0 3.17.316 4.609.948 1.46.61 2.724 1.46 3.791 2.55a11.392 11.392 0 0 1 2.55 3.791 11.33 11.33 0 0 1 .948 4.609c0 1.634-.316 3.182-.948 4.642a11.843 11.843 0 0 1-2.55 3.791c-1.067 1.068-2.331 1.918-3.791 2.55-1.439.61-2.975.915-4.609.915-1.635 0-3.182-.305-4.642-.915a12.623 12.623 0 0 1-3.792-2.55 12.584 12.584 0 0 1-2.549-3.791 11.905 11.905 0 0 1-.916-4.642c0-1.634.305-3.171.916-4.609.631-1.46 1.481-2.724 2.549-3.792a11.868 11.868 0 0 1 3.792-2.55 11.56 11.56 0 0 1 4.642-.947Zm27.304.457h3.923v22.882h-4.249l-9.186-15.658v15.658h-3.922V96.924h4.249l9.185 15.658V96.924ZM23.455 142.69v5.293h-1.48v-12.728h3.49c1.562 0 2.714.299 3.457.897.749.597 1.123 1.497 1.123 2.698 0 1.684-.853 2.821-2.56 3.413l3.457 5.72h-1.75l-3.082-5.293h-2.655Zm0-1.271h2.028c1.045 0 1.81-.206 2.299-.618.487-.418.73-1.042.73-1.872 0-.842-.249-1.448-.748-1.82-.493-.371-1.288-.557-2.385-.557h-1.924v4.867Zm21.45 6.564H37.81v-12.728h7.096v1.314H39.29v4.101h5.276v1.306H39.29v4.684h5.616v1.323Zm15.645 0-1.585-4.048h-5.101l-1.567 4.048h-1.498l5.032-12.78h1.245l5.006 12.78H60.55Zm-2.046-5.38-1.48-3.944a21.197 21.197 0 0 1-.592-1.837c-.128.557-.31 1.169-.549 1.837l-1.497 3.944h4.118Zm10.142 5.38v-12.728h1.48v11.387h5.615v1.341h-7.095Zm17.995 0h-1.48v-11.414H81.13v-1.314h9.542v1.314H86.64v11.414Zm14.007-6.364 3.396-6.364h1.601l-4.248 7.792v4.936h-1.498v-4.867l-4.24-7.861h1.62l3.369 6.364Zm21.016 6.364v-12.728h1.48v12.728h-1.48Zm19.736 0h-1.689l-6.956-10.682h-.07c.093 1.253.139 2.403.139 3.447v7.235h-1.367v-12.728h1.672l6.939 10.638h.069a97.8 97.8 0 0 1-.078-1.506 26.577 26.577 0 0 1-.044-1.828v-7.304h1.385v12.728Zm13.763-11.588c-1.398 0-2.504.468-3.317 1.402-.806.929-1.21 2.203-1.21 3.822 0 1.666.389 2.954 1.167 3.865.783.906 1.898 1.358 3.343 1.358.888 0 1.901-.159 3.038-.478v1.297c-.882.331-1.97.496-3.265.496-1.874 0-3.322-.569-4.344-1.706-1.015-1.138-1.523-2.754-1.523-4.85 0-1.311.243-2.46.731-3.447.493-.987 1.201-1.747 2.124-2.281.929-.534 2.02-.801 3.274-.801 1.335 0 2.501.244 3.499.731l-.626 1.271c-.964-.452-1.927-.679-2.891-.679Z" fill="#fff"/>
  <path stroke="#fff" stroke-width="2.539" d="M63.544 45.702v30.366M103.079 76.068V3l-17.08 14.234v58.834"/>
  <path d="M90.743 76.068V25.774h-18.03v50.294" stroke="#fff" stroke-width="2.539"/>
  <path d="M97.386 71.08v-9.246h40.804v18.978H40.45" stroke="#fff" stroke-width="2.539"/>
  <path fill="#59BC73" d="M111.62 67.212h18.979v7.591H111.62z"/>
</svg>
