<svg width="194" height="153" fill="none" xmlns="http://www.w3.org/2000/svg">
  <path d="M19.846 96.924h4.282v22.882h-3.922v-16.213l-7.551 11.669-7.519-11.669v16.213H1.214V96.924h4.282l7.159 11.114 7.19-11.114Zm20.413.033 10.33 22.881h-4.316l-1.765-3.922-1.765-3.923-4.641-10.264-4.642 10.264h5.95l1.764 3.923h-9.48l-1.764 3.922h-4.315l10.33-22.881h4.314Zm33.282 0-8.695 11.441 8.695 11.44h-4.903l-6.244-8.204-6.243 8.204h-4.903l8.695-11.44-8.695-11.441h4.903l6.243 8.205 6.244-8.205h4.903Zm5.562.033v22.848H75.18V96.99h3.923Zm21.09-.066h4.282v22.882h-3.923v-16.213l-7.55 11.669-7.519-11.669v16.213h-3.922V96.924h4.282L93 108.038l7.192-11.114Zm10.672.066v22.848h-3.923V96.99h3.923Zm6.38 18.926h8.99v3.922h-12.912V96.99h3.922v18.926Zm14.716 0h8.989v3.922H128.039V96.99h3.922v18.926Zm15.582-18.926v22.848h-3.923V96.99h3.923Zm14.029 3.399a7.591 7.591 0 0 0-3.04.621 7.812 7.812 0 0 0-2.582 1.733 8.24 8.24 0 0 0-1.765 2.582 7.955 7.955 0 0 0-.588 3.04c0 1.068.196 2.092.588 3.073a8.263 8.263 0 0 0 1.765 2.582 7.81 7.81 0 0 0 5.622 2.321 7.937 7.937 0 0 0 3.04-.589 7.703 7.703 0 0 0 2.615-1.732 7.812 7.812 0 0 0 1.733-2.582 8.205 8.205 0 0 0 .588-3.073 7.955 7.955 0 0 0-.588-3.04 7.792 7.792 0 0 0-1.733-2.582 7.705 7.705 0 0 0-2.615-1.733 7.588 7.588 0 0 0-3.04-.621Zm0-3.922c1.635 0 3.171.316 4.609.948 1.46.61 2.724 1.46 3.792 2.55a11.392 11.392 0 0 1 2.55 3.791 11.33 11.33 0 0 1 .948 4.609c0 1.634-.316 3.182-.948 4.642a11.843 11.843 0 0 1-2.55 3.791c-1.068 1.068-2.332 1.918-3.792 2.55-1.438.61-2.974.915-4.609.915-1.634 0-3.181-.305-4.641-.915a12.598 12.598 0 0 1-3.792-2.55 12.606 12.606 0 0 1-2.55-3.791 11.922 11.922 0 0 1-.915-4.642c0-1.634.305-3.171.915-4.609.632-1.46 1.482-2.724 2.55-3.792a11.846 11.846 0 0 1 3.792-2.55 11.56 11.56 0 0 1 4.641-.947Zm27.305.457h3.923v22.882h-4.25l-9.185-15.658v15.658h-3.923V96.924h4.25l9.185 15.658V96.924ZM31.23 142.69v5.293h-1.48v-12.728h3.491c1.561 0 2.713.299 3.456.897.749.597 1.123 1.497 1.123 2.698 0 1.684-.853 2.821-2.56 3.413l3.457 5.72h-1.75l-3.082-5.293H31.23Zm0-1.271h2.028c1.045 0 1.811-.206 2.299-.618.487-.418.731-1.042.731-1.872 0-.842-.25-1.448-.749-1.82-.493-.371-1.288-.557-2.385-.557H31.23v4.867Zm21.45 6.564h-7.094v-12.728h7.095v1.314h-5.615v4.101h5.275v1.306h-5.275v4.684h5.615v1.323Zm15.645 0-1.584-4.048h-5.102l-1.567 4.048h-1.498l5.032-12.78h1.245l5.006 12.78h-1.532Zm-2.046-5.38-1.48-3.944a21.163 21.163 0 0 1-.592-1.837c-.127.557-.31 1.169-.548 1.837l-1.498 3.944h4.118Zm10.142 5.38v-12.728h1.48v11.387h5.616v1.341H76.42Zm17.995 0h-1.48v-11.414h-4.03v-1.314h9.54v1.314h-4.03v11.414Zm14.007-6.364 3.396-6.364h1.602l-4.249 7.792v4.936h-1.497v-4.867l-4.24-7.861h1.619l3.369 6.364Zm21.016 6.364v-12.728h1.48v12.728h-1.48Zm19.736 0h-1.689l-6.956-10.682h-.07c.093 1.253.14 2.403.14 3.447v7.235h-1.367v-12.728h1.671l6.939 10.638h.069c-.011-.156-.037-.658-.078-1.506-.041-.853-.055-1.462-.043-1.828v-7.304h1.384v12.728Zm13.764-11.588c-1.399 0-2.505.468-3.317 1.402-.807.929-1.211 2.203-1.211 3.822 0 1.666.389 2.954 1.167 3.865.784.906 1.898 1.358 3.343 1.358.888 0 1.901-.159 3.038-.478v1.297c-.882.331-1.97.496-3.264.496-1.875 0-3.323-.569-4.344-1.706-1.016-1.138-1.524-2.754-1.524-4.85 0-1.311.244-2.46.731-3.447.494-.987 1.202-1.747 2.125-2.281.928-.534 2.019-.801 3.273-.801 1.335 0 2.501.244 3.5.731l-.627 1.271c-.964-.452-1.927-.679-2.89-.679Z" fill="#fff"/>
  <path stroke="#fff" stroke-width="2.539" d="m71.094 45.702.001 30.366M110.63 76.068V3L93.549 17.234v58.834"/>
  <path d="M98.293 76.068V25.774h-18.03v50.294" stroke="#fff" stroke-width="2.539"/>
  <path d="M104.936 71.08v-9.246h40.804v18.978H48" stroke="#fff" stroke-width="2.539"/>
  <path fill="#59BC73" d="M119.17 67.212h18.979v7.591H119.17z"/>
</svg>
