<svg width="201" height="67" fill="none" xmlns="http://www.w3.org/2000/svg">
  <path d="M74.417 22.153h3.388v18.102H74.7V27.428l-5.973 9.232-5.948-9.231v12.826h-3.103V22.153h3.388l5.663 8.792 5.689-8.792Zm16.149.026 8.172 18.102h-3.414l-1.396-3.103-1.397-3.104-3.672-8.12-3.672 8.12h4.707l1.396 3.104h-7.5l-1.396 3.103h-3.413l8.172-18.102h3.413Zm26.33 0-6.879 9.05 6.879 9.052h-3.879l-4.939-6.491-4.94 6.49h-3.879l6.879-9.05-6.879-9.051h3.879l4.94 6.49 4.939-6.49h3.879Zm4.4.026V40.28h-3.103V22.205h3.103Zm16.684-.052h3.388v18.102h-3.103V27.428l-5.974 9.232-5.948-9.231v12.826h-3.103V22.153h3.388l5.663 8.792 5.689-8.792Zm8.443.052V40.28h-3.103V22.205h3.103Zm5.048 14.973h7.111v3.103h-10.214V22.205h3.103v14.973Zm12.326-14.973V40.28h-3.103V22.205h3.103Zm11.099 2.69c-.844 0-1.646.163-2.405.49a6.191 6.191 0 0 0-2.043 1.371 6.546 6.546 0 0 0-1.396 2.043 6.296 6.296 0 0 0-.465 2.405c0 .845.155 1.655.465 2.43.328.76.793 1.44 1.396 2.044a6.19 6.19 0 0 0 2.043 1.37c.759.31 1.561.466 2.405.466.845 0 1.647-.155 2.405-.466a6.104 6.104 0 0 0 2.069-1.37 6.196 6.196 0 0 0 1.371-2.043c.31-.776.465-1.586.465-2.431s-.155-1.646-.465-2.405a6.196 6.196 0 0 0-1.371-2.043 6.106 6.106 0 0 0-2.069-1.37 6 6 0 0 0-2.405-.492Zm0-3.104c1.293 0 2.509.25 3.647.75a9.018 9.018 0 0 1 2.999 2.017 9.008 9.008 0 0 1 2.017 3c.5 1.138.75 2.353.75 3.646 0 1.293-.25 2.517-.75 3.672a9.37 9.37 0 0 1-2.017 3 9.568 9.568 0 0 1-2.999 2.017 9.243 9.243 0 0 1-3.647.724 9.427 9.427 0 0 1-3.672-.724 9.974 9.974 0 0 1-2.999-2.017 9.979 9.979 0 0 1-2.018-3 9.44 9.44 0 0 1-.724-3.672 9.25 9.25 0 0 1 .724-3.646 9.568 9.568 0 0 1 2.018-3 9.376 9.376 0 0 1 2.999-2.017 9.144 9.144 0 0 1 3.672-.75Zm21.601.362h3.104v18.102h-3.362l-7.267-12.387v12.387h-3.103V22.153h3.362l7.266 12.387V22.153ZM90.713 58.48v4.187h-1.17v-10.07h2.761c1.235 0 2.147.237 2.734.71.593.473.889 1.184.889 2.135 0 1.331-.675 2.231-2.025 2.7l2.734 4.525h-1.384l-2.438-4.188h-2.1Zm0-1.006h1.605c.826 0 1.432-.163 1.818-.49.386-.33.579-.824.579-1.48 0-.666-.198-1.146-.593-1.44-.39-.294-1.019-.44-1.887-.44h-1.522v3.85Zm16.97 5.193h-5.613v-10.07h5.613v1.04h-4.442v3.244h4.174v1.033h-4.174v3.706h4.442v1.047Zm12.376 0-1.253-3.203h-4.036l-1.24 3.203h-1.184l3.981-10.11h.984l3.961 10.11h-1.213Zm-1.618-4.257-1.171-3.12c-.151-.395-.308-.879-.468-1.453-.101.44-.246.925-.434 1.453l-1.185 3.12h3.258Zm8.023 4.257v-10.07h1.171v9.009h4.443v1.06h-5.614Zm14.236 0h-1.171v-9.03h-3.188v-1.04h7.548v1.04H140.7v9.03Zm11.082-5.035 2.686-5.035h1.267l-3.361 6.165v3.905h-1.185v-3.85l-3.354-6.22h1.281l2.666 5.035Zm16.625 5.035v-10.07h1.171v10.07h-1.171Zm15.614 0h-1.337l-5.503-8.451h-.055c.074.992.11 1.9.11 2.727v5.724h-1.081v-10.07h1.323l5.489 8.417h.055c-.009-.124-.03-.521-.062-1.192a21.16 21.16 0 0 1-.035-1.446v-5.779h1.096v10.07Zm10.888-9.167c-1.106 0-1.981.37-2.624 1.108-.638.735-.957 1.743-.957 3.024 0 1.318.307 2.337.923 3.058.619.716 1.501 1.074 2.644 1.074.703 0 1.504-.126 2.404-.378v1.026c-.698.262-1.559.392-2.583.392-1.483 0-2.628-.45-3.437-1.35-.803-.9-1.205-2.178-1.205-3.836 0-1.037.193-1.947.579-2.727.39-.78.95-1.382 1.68-1.805.735-.422 1.598-.633 2.59-.633 1.056 0 1.979.193 2.769.578l-.496 1.006c-.762-.358-1.525-.537-2.287-.537Z" fill="#232A31"/>
  <path stroke="#232A31" stroke-width="2.008" d="M18.271 36.782v24.023M49.547 60.805V3L36.034 14.26v46.545"/>
  <path d="M39.788 60.805V21.017H25.524v39.788" stroke="#232A31" stroke-width="2.008"/>
  <path d="M45.043 56.859v-7.315h32.28v15.014H0" stroke="#232A31" stroke-width="2.008"/>
  <path fill="#59BC73" d="M56.303 53.799h15.014v6.006H56.303z"/>
</svg>
