<svg width="213" height="68" fill="none" xmlns="http://www.w3.org/2000/svg">
  <path d="M74.417 22.153h3.387v18.102h-3.103V27.428l-5.973 9.232-5.948-9.231v12.826h-3.103V22.153h3.387l5.664 8.792 5.689-8.792Zm16.148.026 8.172 18.102h-3.413l-1.397-3.103-1.396-3.104-3.672-8.12-3.672 8.12h4.706l1.397 3.104h-7.5l-1.396 3.103H78.98l8.172-18.102h3.413Zm26.33 0-6.878 9.05 6.878 9.052h-3.879l-4.939-6.491-4.939 6.49h-3.879l6.879-9.05-6.879-9.051h3.879l4.939 6.49 4.939-6.49h3.879Zm4.4.026V40.28h-3.103V22.205h3.103Zm16.685-.052h3.387v18.102h-3.103V27.428l-5.973 9.232-5.948-9.231v12.826h-3.103V22.153h3.387l5.664 8.792 5.689-8.792Zm8.443.052V40.28h-3.104V22.205h3.104Zm5.047 14.973h7.112v3.103h-10.215V22.205h3.103v14.973Zm11.642 0h7.112v3.103h-10.215V22.205h3.103v14.973Zm12.327-14.973V40.28h-3.103V22.205h3.103Zm11.099 2.69a6 6 0 0 0-2.405.49 6.17 6.17 0 0 0-2.043 1.371 6.55 6.55 0 0 0-1.397 2.043 6.296 6.296 0 0 0-.465 2.405c0 .845.155 1.655.465 2.43a6.55 6.55 0 0 0 1.397 2.044 6.169 6.169 0 0 0 4.448 1.836 6.29 6.29 0 0 0 2.405-.466 6.11 6.11 0 0 0 2.068-1.37 6.165 6.165 0 0 0 1.371-2.043c.31-.776.466-1.586.466-2.431s-.156-1.646-.466-2.405a6.165 6.165 0 0 0-1.371-2.043 6.111 6.111 0 0 0-2.068-1.37 6.004 6.004 0 0 0-2.405-.492Zm0-3.104c1.293 0 2.508.25 3.646.75a9.022 9.022 0 0 1 3 2.017 9.023 9.023 0 0 1 2.017 3c.5 1.138.75 2.353.75 3.646 0 1.293-.25 2.517-.75 3.672a9.386 9.386 0 0 1-2.017 3 9.573 9.573 0 0 1-3 2.017 9.238 9.238 0 0 1-3.646.724 9.427 9.427 0 0 1-3.672-.724 9.98 9.98 0 0 1-3-2.017 9.976 9.976 0 0 1-2.017-3 9.421 9.421 0 0 1-.724-3.672c0-1.293.241-2.508.724-3.646a9.565 9.565 0 0 1 2.017-3 9.38 9.38 0 0 1 3-2.017 9.144 9.144 0 0 1 3.672-.75Zm21.601.362h3.103v18.102h-3.362l-7.266-12.387v12.387h-3.103V22.153h3.361l7.267 12.387V22.153ZM90.876 59.214v4.453H89.63V52.959h2.937c1.314 0 2.283.251 2.908.754.63.503.945 1.26.945 2.27 0 1.417-.718 2.374-2.153 2.872l2.907 4.812h-1.472l-2.593-4.453h-2.233Zm0-1.07h1.706c.879 0 1.524-.173 1.934-.52.41-.351.615-.876.615-1.575 0-.707-.21-1.218-.63-1.53-.415-.313-1.084-.469-2.007-.469h-1.618v4.094Zm18.646 5.523h-5.969V52.959h5.969v1.106h-4.724v3.45h4.438v1.098h-4.438v3.94h4.724v1.114Zm13.761 0-1.333-3.406h-4.292l-1.318 3.406h-1.26l4.234-10.752h1.047l4.211 10.752h-1.289Zm-1.721-4.527-1.245-3.318c-.161-.42-.327-.935-.498-1.545-.107.469-.261.984-.461 1.545l-1.26 3.318h3.464Zm9.133 4.527V52.959h1.245v9.58h4.724v1.128h-5.969Zm15.738 0h-1.245v-9.602h-3.391v-1.106h8.028v1.106h-3.392v9.602Zm12.385-5.354 2.856-5.354h1.348l-3.574 6.555v4.153h-1.26v-4.095l-3.567-6.613h1.362l2.835 5.354Zm18.88 5.354V52.959h1.245v10.708h-1.245Zm17.204 0h-1.421l-5.852-8.987h-.059a39.57 39.57 0 0 1 .117 2.9v6.087h-1.15V52.959h1.407l5.837 8.95h.059c-.01-.132-.032-.554-.066-1.267a22.202 22.202 0 0 1-.037-1.538v-6.145h1.165v10.708Zm12.179-9.749c-1.177 0-2.107.393-2.791 1.18-.678.78-1.018 1.852-1.018 3.215 0 1.401.328 2.485.982 3.252.659.761 1.596 1.142 2.812 1.142.747 0 1.599-.134 2.556-.403v1.092c-.742.278-1.657.417-2.746.417-1.577 0-2.796-.478-3.655-1.435-.854-.957-1.282-2.317-1.282-4.08 0-1.104.205-2.07.616-2.9a4.468 4.468 0 0 1 1.787-1.92c.781-.449 1.699-.673 2.754-.673 1.123 0 2.104.205 2.944.615l-.527 1.07c-.811-.381-1.621-.572-2.432-.572Z" fill="#232A31"/>
  <path stroke="#232A31" stroke-width="2.008" d="M18.271 36.782v24.023M49.547 60.805V3L36.034 14.26v46.545"/>
  <path d="M39.788 60.805V21.017H25.524v39.788" stroke="#232A31" stroke-width="2.008"/>
  <path d="M45.043 56.859v-7.315h32.28v15.014H0" stroke="#232A31" stroke-width="2.008"/>
  <path fill="#59BC73" d="M56.304 53.799h15.014v6.006H56.304z"/>
</svg>
