<svg width="100" height="51" fill="none" xmlns="http://www.w3.org/2000/svg">
  <g clip-path="url(#a)" fill="#59BC73">
    <path d="M6.885 26.474a.843.843 0 1 0 0-1.687.843.843 0 0 0 0 1.687ZM6.277 13.594a.843.843 0 0 0-1.172.228 10.146 10.146 0 0 0-1.123 9.142.844.844 0 1 0 1.587-.578 8.459 8.459 0 0 1 .932-7.594.844.844 0 0 0-.224-1.198ZM20.423 12.577a.844.844 0 0 0-1.19 0l-4.64 4.64a2.532 2.532 0 1 0-1.937 4.667v2.678a.844.844 0 1 0 1.688 0v-2.678a2.53 2.53 0 0 0 1.438-3.472l4.641-4.641a.843.843 0 0 0 0-1.194ZM13.5 20.344a.843.843 0 1 1 0-1.686.843.843 0 0 1 0 1.686Z"/>
    <path d="M13.5 6a13.5 13.5 0 1 0 6.674 25.237.845.845 0 0 0-.844-1.464 11.855 11.855 0 1 1 2.608-1.987.844.844 0 1 0 1.202 1.185A13.5 13.5 0 0 0 13.5 6Z"/>
    <path d="M14.344 11.063v-.844a.844.844 0 1 0-1.688 0v.844a.843.843 0 1 0 1.688 0ZM13.5 27.094a.843.843 0 0 0-.844.843v.844a.844.844 0 0 0 1.688 0v-.843a.843.843 0 0 0-.844-.844ZM22.781 20.344a.844.844 0 0 0 0-1.688h-.843a.843.843 0 1 0 0 1.688h.843Z"/>
  </g>
  <path d="M48.17 17.528c3.2 0 5.547.608 7.04 1.824 1.515 1.195 2.272 2.837 2.272 4.928 0 1.323-.32 2.517-.96 3.584-.618 1.045-1.568 1.877-2.848 2.496-1.258.597-2.816.896-4.672.896-1.578 0-3.104-.235-4.576-.704-1.472-.49-2.688-1.163-3.648-2.016l1.472-2.528c.768.725 1.75 1.312 2.944 1.76a11.14 11.14 0 0 0 3.776.64c1.686 0 2.987-.352 3.904-1.056.939-.725 1.408-1.707 1.408-2.944 0-1.344-.512-2.357-1.536-3.04-1.024-.704-2.773-1.056-5.248-1.056H42.41L43.594 8.6h12.64v2.784h-9.952l-.608 6.144h2.496Zm31.463 7.968h-4.256V31h-3.104v-5.504H59.825v-2.24L71.281 8.6h3.456L63.761 22.744h8.608V17.88h3.008v4.864h4.256v2.752ZM91.216 17.4c1.472 0 2.784.277 3.936.832 1.173.555 2.09 1.355 2.752 2.4.661 1.024.992 2.208.992 3.552 0 1.408-.352 2.645-1.056 3.712-.683 1.067-1.632 1.899-2.848 2.496-1.195.576-2.539.864-4.032.864-3.008 0-5.334-.97-6.976-2.912-1.622-1.941-2.432-4.693-2.432-8.256 0-2.496.437-4.619 1.312-6.368.896-1.77 2.133-3.104 3.712-4 1.6-.917 3.456-1.376 5.568-1.376 1.088 0 2.112.117 3.072.352.96.213 1.792.533 2.496.96l-1.216 2.496c-1.067-.704-2.496-1.056-4.288-1.056-2.326 0-4.15.725-5.472 2.176-1.323 1.43-1.984 3.52-1.984 6.272 0 .341.01.608.032.8.64-.96 1.514-1.685 2.624-2.176 1.13-.512 2.4-.768 3.808-.768Zm-.384 11.264c1.472 0 2.666-.395 3.584-1.184.917-.79 1.376-1.845 1.376-3.168 0-1.323-.47-2.368-1.408-3.136-.918-.79-2.155-1.184-3.712-1.184-1.003 0-1.899.192-2.688.576-.768.384-1.376.907-1.824 1.568a3.988 3.988 0 0 0-.64 2.208c0 .79.202 1.515.608 2.176.426.64 1.034 1.163 1.824 1.568.81.384 1.77.576 2.88.576Z" fill="#59BC73"/>
  <defs>
    <clipPath id="a">
      <path fill="#fff" transform="translate(0 6)" d="M0 0h27v27H0z"/>
    </clipPath>
  </defs>
</svg>
