<svg width="32" height="32" fill="none" xmlns="http://www.w3.org/2000/svg">
  <g clip-path="url(#a)" fill="#000">
    <path d="m31.86 12.993-5-8.5A1 1 0 0 0 26 4h-1.5V1a1 1 0 0 0-1-1h-4a1 1 0 0 0-1 1v3H5.5a1 1 0 0 0-.883.532l-4.5 8.5a1.007 1.007 0 0 0 .884 1.468h2.5V30h-1a1 1 0 0 0 0 2h26.997a1 1 0 1 0 0-2h-1V14.5h2.5a1.007 1.007 0 0 0 .861-1.507ZM19.5 30h-7v-8.5h7V30Zm6.999 0h-5v-9.5a1 1 0 0 0-1-1h-8.998a1 1 0 0 0-1 1V30h-5V14.5h3.586l-.793.793a1 1 0 0 0 1.414 1.414L16 10.414l6.293 6.293a1 1 0 0 0 1.413-1.414l-.793-.793H26.5V30Zm-5.585-17.5-4.207-4.207a1 1 0 0 0-1.414 0L11.087 12.5H2.663L6.103 6H18.5v1a1 1 0 1 0 2 0V2h2v5a1 1 0 1 0 2 0V6h.927l3.823 6.5h-8.336Z"/>
    <path d="M8.001 7.5a1 1 0 1 0 0 2 1 1 0 0 0 0-2Z"/>
  </g>
  <defs>
    <clipPath id="a">
      <path fill="#fff" d="M0 0h32v32H0z"/>
    </clipPath>
  </defs>
</svg>
