<svg width="116" height="51" fill="none" xmlns="http://www.w3.org/2000/svg">
  <g clip-path="url(#a)" fill="#59BC73">
    <path d="M13.078 16.969h2.531a.843.843 0 1 0 0-1.688h-1.265a.844.844 0 0 0-1.688 0v.038a2.531 2.531 0 0 0 .422 5.025h.844a.843.843 0 1 1 0 1.687H11.39a.843.843 0 1 0 0 1.688h1.265a.844.844 0 0 0 1.688 0v-.038a2.531 2.531 0 0 0-.422-5.025h-.844a.843.843 0 1 1 0-1.687Z"/>
    <path d="M13.5 11.063a8.438 8.438 0 1 0 0 16.875 8.438 8.438 0 0 0 0-16.875Zm0 15.187a6.75 6.75 0 1 1 0-13.5 6.75 6.75 0 0 1 0 13.5Z"/>
    <path d="M13.5 8.531a10.99 10.99 0 0 1 10.357 7.362l-1.266.198 2.721 3.409 1.582-4.08-1.354.211A12.656 12.656 0 0 0 13.5 6.844a.844.844 0 1 0 0 1.687ZM13.5 30.469a10.99 10.99 0 0 1-10.357-7.362l1.287-.198L1.688 19.5.105 23.58l1.355-.211a12.656 12.656 0 0 0 12.04 8.787.843.843 0 1 0 0-1.687ZM5.168 12.007a.844.844 0 1 0 .002-1.687.844.844 0 0 0-.002 1.687ZM1.797 17.813a.844.844 0 1 0 .352-1.65.844.844 0 0 0-.352 1.65ZM2.742 14.594a.843.843 0 0 0 .422.105.843.843 0 0 0 .422-1.586.852.852 0 0 0-.844 1.48ZM21.271 27.275a.844.844 0 1 0 1.194 1.193.844.844 0 0 0-1.194-1.193ZM24.292 24.444a.844.844 0 1 0-.389 1.582.843.843 0 0 0 .743-.421.845.845 0 0 0-.354-1.16ZM25.24 21.209a.851.851 0 0 0-.35 1.666c.06.006.122.006.182 0a.844.844 0 0 0 .844-.662.845.845 0 0 0-.675-1.004Z"/>
  </g>
  <path d="M57.53 28.216V31H41.434v-2.176l9.12-8.8c1.11-1.067 1.856-1.984 2.24-2.752.384-.79.576-1.579.576-2.368 0-1.173-.416-2.08-1.248-2.72-.81-.661-1.984-.992-3.52-.992-2.475 0-4.384.81-5.728 2.432l-2.176-1.888c.875-1.067 2.016-1.899 3.424-2.496 1.43-.597 3.019-.896 4.768-.896 2.347 0 4.213.565 5.6 1.696 1.387 1.11 2.08 2.624 2.08 4.544a7.74 7.74 0 0 1-.768 3.392c-.512 1.067-1.483 2.283-2.912 3.648l-6.848 6.592H57.53Zm9.031-10.688c3.2 0 5.547.608 7.04 1.824 1.515 1.195 2.272 2.837 2.272 4.928 0 1.323-.32 2.517-.96 3.584-.619 1.045-1.568 1.877-2.848 2.496-1.259.597-2.816.896-4.672.896-1.579 0-3.104-.235-4.576-.704-1.472-.49-2.688-1.163-3.648-2.016l1.472-2.528c.768.725 1.75 1.312 2.944 1.76 1.195.427 2.453.64 3.776.64 1.685 0 2.987-.352 3.904-1.056.939-.725 1.408-1.707 1.408-2.944 0-1.344-.512-2.357-1.536-3.04-1.024-.704-2.773-1.056-5.248-1.056h-5.088L61.985 8.6h12.64v2.784h-9.952l-.608 6.144h2.496Zm20.395.48c2.197.213 3.872.896 5.024 2.048 1.152 1.13 1.728 2.581 1.728 4.352 0 1.28-.32 2.443-.96 3.488-.64 1.024-1.6 1.845-2.88 2.464-1.259.597-2.806.896-4.64.896-1.6 0-3.136-.235-4.608-.704-1.472-.49-2.678-1.163-3.616-2.016l1.472-2.528c.768.725 1.75 1.312 2.944 1.76 1.194.427 2.464.64 3.808.64 1.664 0 2.954-.352 3.872-1.056.938-.704 1.408-1.675 1.408-2.912 0-1.237-.459-2.197-1.376-2.88-.918-.683-2.304-1.024-4.16-1.024H83.18v-2.24l5.632-6.912H78.028V8.6h14.784v2.176l-5.856 7.232Zm23.432 1.248c1.28.49 2.262 1.195 2.944 2.112.683.917 1.024 2.016 1.024 3.296 0 1.344-.362 2.517-1.088 3.52-.725.981-1.76 1.739-3.104 2.272-1.344.533-2.922.8-4.736.8-1.792 0-3.36-.267-4.704-.8-1.322-.533-2.346-1.29-3.072-2.272-.725-1.003-1.088-2.176-1.088-3.52 0-1.28.33-2.379.992-3.296.683-.917 1.664-1.621 2.944-2.112-1.024-.49-1.802-1.141-2.336-1.952-.533-.81-.8-1.77-.8-2.88 0-1.237.33-2.315.992-3.232.683-.917 1.632-1.621 2.848-2.112 1.216-.49 2.624-.736 4.224-.736 1.622 0 3.04.245 4.256.736 1.238.49 2.187 1.195 2.848 2.112.683.917 1.024 1.995 1.024 3.232 0 1.088-.277 2.048-.832 2.88-.533.81-1.312 1.461-2.336 1.952Zm-4.96-8.32c-1.514 0-2.709.33-3.584.992-.874.64-1.312 1.515-1.312 2.624 0 1.11.427 1.984 1.28 2.624.875.64 2.08.96 3.616.96 1.558 0 2.774-.32 3.648-.96.896-.64 1.344-1.515 1.344-2.624 0-1.11-.458-1.984-1.376-2.624-.896-.661-2.101-.992-3.616-.992Zm0 17.728c1.771 0 3.168-.363 4.192-1.088 1.024-.747 1.536-1.75 1.536-3.008 0-1.237-.512-2.208-1.536-2.912-1.024-.725-2.421-1.088-4.192-1.088-1.77 0-3.157.363-4.16 1.088-1.002.704-1.504 1.675-1.504 2.912 0 1.259.502 2.261 1.504 3.008 1.003.725 2.39 1.088 4.16 1.088Z" fill="#59BC73"/>
  <defs>
    <clipPath id="a">
      <path fill="#fff" transform="translate(0 6)" d="M0 0h27v27H0z"/>
    </clipPath>
  </defs>
</svg>
