<svg aria-hidden="true" style="position:absolute;width:0;height:0;overflow:hidden" xmlns="http://www.w3.org/2000/svg">
  <defs>
    <symbol id="icon-check-border" viewBox="0 0 31 32">
      <path fill="none" stroke="#cbcbcd" style="stroke:var(--color1, #cbcbcd)" stroke-width="1.454" d="M4.364 1.636h21.818a3.636 3.636 0 0 1 3.636 3.636V27.09a3.636 3.636 0 0 1-3.636 3.636H4.364A3.636 3.636 0 0 1 .728 27.09V5.272a3.636 3.636 0 0 1 3.636-3.636z"/>
    </symbol>
    <symbol id="icon-check" viewBox="0 0 30 32">
      <path fill="#59bc73" style="fill:var(--color2, #59bc73)" d="M6.857 1.429h16a6.857 6.857 0 0 1 6.857 6.857v16a6.857 6.857 0 0 1-6.857 6.857h-16A6.857 6.857 0 0 1 0 24.286v-16a6.857 6.857 0 0 1 6.857-6.857z"/>
    </symbol>
    <symbol id="icon-logo-footer" viewBox="0 0 38 32">
      <path fill="#fff" style="fill:var(--color3, #fff)" d="M4.136 20.272h.896v4.786h-.82v-3.391l-1.579 2.441-1.572-2.441v3.391H.24v-4.786h.896l1.497 2.325 1.504-2.325zm4.27.007 2.161 4.786h-.902l-.739-1.641-.971-2.147-.971 2.147h1.244l.369.82H6.614l-.369.82h-.902l2.161-4.786h.902zm6.96 0-1.819 2.393 1.819 2.393h-1.025l-1.306-1.716-1.306 1.716h-1.025l1.819-2.393-1.819-2.393h1.025l1.306 1.716 1.306-1.716h1.025zm1.164.006v4.779h-.82v-4.779h.82zm4.411-.013h.896v4.786h-.82v-3.391l-1.579 2.441-1.573-2.441v3.391h-.82v-4.786h.896l1.497 2.325 1.504-2.325zm2.232.013v4.779h-.82v-4.779h.82zm1.334 3.959h1.88v.82h-2.701v-4.779h.82v3.958zm3.259-3.959v4.779h-.82v-4.779h.82zm2.935.711h-.007c-.227 0-.444.048-.639.134l.01-.004a1.737 1.737 0 0 0-.905.891l-.004.011a1.631 1.631 0 0 0-.123.628v.008c0 .223.041.438.123.643.092.21.217.389.369.54.15.152.33.274.529.358l.011.004c.186.078.401.123.628.123h.017c.226 0 .442-.045.639-.127l-.011.004c.213-.087.395-.209.547-.362.152-.15.274-.33.358-.529l.004-.011c.078-.189.123-.408.123-.638v-.02a1.63 1.63 0 0 0-.485-1.161 1.63 1.63 0 0 0-.536-.359l-.011-.004a1.564 1.564 0 0 0-.629-.13h-.007zm0-.82c.342 0 .663.066.964.198.305.128.57.305.793.533a2.4 2.4 0 0 1 .528.777l.006.016c.125.279.198.606.198.949v.016-.001a2.52 2.52 0 0 1-.731 1.764 2.532 2.532 0 0 1-.793.533c-.301.128-.622.191-.964.191s-.666-.064-.971-.191a2.651 2.651 0 0 1-.794-.534 2.615 2.615 0 0 1-.526-.776l-.007-.017a2.451 2.451 0 0 1-.192-.958v-.014.001c0-.342.064-.663.192-.964a2.48 2.48 0 0 1 1.31-1.32l.016-.006a2.38 2.38 0 0 1 .958-.198h.013-.001zm5.71.096h.821v4.786h-.889l-1.921-3.275v3.275h-.82v-4.786h.889l1.921 3.275v-3.275zM4.906 29.844v1.107h-.31v-2.662h.73c.327 0 .568.063.723.188.157.125.235.313.235.564 0 .352-.178.59-.535.714l.723 1.196h-.366l-.645-1.107h-.555zm0-.266h.424c.219 0 .379-.043.481-.129.102-.087.153-.218.153-.392 0-.176-.052-.303-.156-.381-.103-.078-.269-.116-.499-.116h-.402v1.018zm4.486 1.373H7.908v-2.662h1.484v.275H8.217v.858H9.32v.273H8.217v.98h1.175v.277zm3.272 0-.332-.847h-1.067l-.328.847h-.313l1.052-2.673h.26l1.047 2.673h-.32zm-.428-1.126-.31-.825a3.575 3.575 0 0 1-.116-.353l-.007-.031a3.528 3.528 0 0 1-.115.384l-.313.825h.861zm2.121 1.126v-2.662h.31v2.382h1.174v.28h-1.484zm3.764 0h-.31v-2.387h-.843v-.275h1.996v.275h-.843v2.387zm2.93-1.331.71-1.331h.335l-.888 1.63v1.032h-.313v-1.018l-.887-1.644h.339l.705 1.331zm4.395 1.331v-2.662h.31v2.662h-.31zm4.128 0h-.353l-1.455-2.234h-.015c.019.262.029.503.029.721v1.513h-.286v-2.662h.35l1.451 2.225h.014c-.004-.051-.01-.161-.015-.271l-.002-.044a5.44 5.44 0 0 1-.009-.325v-.061.003-1.528h.29v2.662zm2.878-2.424c-.292 0-.524.098-.694.293-.169.194-.253.461-.253.799 0 .348.081.618.244.808.164.189.397.284.699.284.186 0 .398-.033.635-.1v.271a1.959 1.959 0 0 1-.683.104c-.392 0-.695-.119-.909-.357-.212-.238-.319-.576-.319-1.014 0-.274.051-.514.153-.721.103-.206.251-.365.444-.477.194-.112.422-.168.685-.168.279 0 .523.051.732.153l-.131.266a1.408 1.408 0 0 0-.605-.142z"/>
      <path fill="none" stroke="#fff" style="stroke:var(--color3, #fff)" stroke-width=".531" d="M13.29 9.559v6.351m8.269 0V.628l-3.572 2.977V15.91"/>
      <path fill="none" stroke="#fff" style="stroke:var(--color3, #fff)" stroke-width=".531" d="M18.979 15.91V5.391h-3.771V15.91"/>
      <path fill="none" stroke="#fff" style="stroke:var(--color3, #fff)" stroke-width=".531" d="M20.368 14.866v-1.934h8.534v3.969H8.46"/>
      <path fill="#59bc73" style="fill:var(--color2, #59bc73)" d="M23.345 14.057h3.969v1.588h-3.969z"/>
    </symbol>
    <symbol id="icon-mail" viewBox="0 0 37 32">
      <path fill="#59bc73" style="fill:var(--color2, #59bc73)" d="M0 3.692A3.692 3.692 0 0 1 3.692 0H33.23a3.692 3.692 0 0 1 3.692 3.692v2.974L18.46 17.049-.002 6.666V3.692z"/>
      <path fill="#59bc73" style="fill:var(--color2, #59bc73)" d="M0 9.489v18.818a3.692 3.692 0 0 0 3.692 3.692H33.23a3.692 3.692 0 0 0 3.692-3.692V9.489L18.46 19.874-.002 9.486z"/>
    </symbol>
    <symbol id="icon-tel" viewBox="0 0 32 32">
      <path fill="#59bc73" style="fill:var(--color2, #59bc73)" d="m25.801 20.154 4.984 4.984c.311.311.503.74.503 1.214s-.192.903-.503 1.214a10.269 10.269 0 0 1-7.282 3.016c-2.33 0-4.479-.774-6.205-2.078l.026.019-2.965-2.225a43.716 43.716 0 0 1-8.58-8.55l-.079-.109-2.225-2.965a10.225 10.225 0 0 1-2.06-6.179c0-2.844 1.153-5.418 3.016-7.282.311-.311.74-.503 1.214-.503s.903.192 1.214.503l4.984 4.984a1.88 1.88 0 0 1 0 2.662l-1.922 1.922a1.002 1.002 0 0 0-.186 1.165l-.003-.006c2.277 4.487 5.836 8.046 10.192 10.262l.131.061a1.005 1.005 0 0 0 1.159-.188l1.92-1.92c.341-.341.812-.552 1.332-.552s.991.211 1.332.552z"/>
    </symbol>
    <symbol id="icon-geo" viewBox="0 0 32 32">
      <path fill="#59bc73" style="fill:var(--color2, #59bc73)" d="M2.133 13.858C2.137 6.204 8.343 0 15.998 0H16c7.657 0 13.867 6.206 13.867 13.858 0 5.705-2.854 10.225-5.914 13.28a23.278 23.278 0 0 1-4.409 3.471l-.103.058c-.687.405-1.329.725-1.888.943-.527.209-1.079.371-1.553.371s-1.026-.162-1.553-.371a13.618 13.618 0 0 1-1.949-.977l.061.034a23.336 23.336 0 0 1-4.511-3.528l-.001-.001c-3.059-3.055-5.914-7.575-5.914-13.28zM16 8.527a5.333 5.333 0 1 0 5.333 5.333A5.333 5.333 0 0 0 16 8.527z"/>
    </symbol>
    <symbol id="icon-arrow" viewBox="0 0 49 32">
      <path fill="none" stroke="#59bc73" style="stroke:var(--color2, #59bc73)" stroke-linecap="round" stroke-width="4.923" d="M45.334 16 32.239 3.2M45.334 16 32.239 28.8M45.334 16H4.411"/>
    </symbol>
    <symbol id="icon-commercial" viewBox="0 0 32 32">
      <path d="M31 21.5a8.993 8.993 0 0 0-1.52-4.564l.02.032V2.81a1.509 1.509 0 0 0-2.179-1.338l.009-.004-11.278 5.637c-.33.168-.552.505-.552.894V12H11v-2a1 1 0 0 0-2 0v2H4a1.502 1.502 0 0 0-1.5 1.5V29H2a1 1 0 0 0 0 2h28a1 1 0 0 0 0-2h-2.5v-3.116A4.513 4.513 0 0 0 31 21.5zM26.5 24a2.503 2.503 0 0 1-2.5-2.5c0-1.67 1.42-4.5 2.5-4.5s2.5 2.83 2.5 4.5a2.503 2.503 0 0 1-2.5 2.5zm-22-10h11v15h-11V14zm13 15V8.618l10-5v11.578c-3.26-1.258-5.517 3.81-5.5 6.304a4.507 4.507 0 0 0 3.469 4.378l.031.006V29h-8z"/>
      <path d="M7.5 16a1 1 0 0 0-1 1v6a1 1 0 0 0 2 0v-6a1 1 0 0 0-1-1zm13-6.5a1 1 0 0 0-1 1V16a1 1 0 0 0 2 0v-5.5a1 1 0 0 0-1-1zM7.5 25a1 1 0 0 0 0 2 1 1 0 0 0 0-2z"/>
    </symbol>
    <symbol id="icon-residential" viewBox="0 0 32 32">
      <path d="m31.86 12.993-5-8.5A1 1 0 0 0 26 4h-1.5V1a1 1 0 0 0-1-1h-4a1 1 0 0 0-1 1v3h-13a.997.997 0 0 0-.88.527l-.003.005-4.5 8.5A1.007 1.007 0 0 0 1 14.5h2.501V30h-1a1 1 0 0 0 0 2h26.997a1 1 0 0 0 0-2h-1V14.5h2.5a1.007 1.007 0 0 0 .858-1.512l.003.005zM19.5 30h-7v-8.5h7V30zm6.999 0h-5v-9.5a1 1 0 0 0-1-1h-8.998a1 1 0 0 0-1 1V30h-5V14.5h3.586l-.793.793a1 1 0 0 0 1.414 1.414L16 10.414l6.293 6.293a1 1 0 0 0 1.413-1.414v.001l-.793-.793H26.5v15.5zm-5.585-17.5-4.207-4.207a.997.997 0 0 0-1.414 0L11.087 12.5H2.663L6.103 6H18.5v1a1 1 0 0 0 2 0V2h2v5a1 1 0 0 0 2 0V6h.927l3.823 6.5h-8.336z"/>
      <path d="M8.001 7.5a1 1 0 0 0 0 2 1 1 0 0 0 0-2z"/>
    </symbol>
    <symbol id="icon-price" viewBox="0 0 63 32">
      <path fill="#59bc73" style="fill:var(--color2, #59bc73)" d="M4.32 16.611a.53.53 0 0 0 0-1.058.53.53 0 0 0 0 1.058zM3.938 8.53a.529.529 0 0 0-.734.141l-.001.002a6.315 6.315 0 0 0-1.088 3.56c0 .781.141 1.529.398 2.22l-.014-.044a.531.531 0 1 0 .995-.366l.001.004a5.197 5.197 0 0 1-.317-1.806c0-1.104.337-2.129.913-2.978l-.012.019a.527.527 0 0 0-.139-.751l-.002-.001zm8.876-.639a.53.53 0 0 0-.746 0l-2.911 2.911a1.59 1.59 0 1 0-1.227 2.925l.011.003v1.68a.53.53 0 0 0 1.06 0v-1.68a1.59 1.59 0 0 0 .898-2.188l.004.009 2.912-2.912a.527.527 0 0 0 0-.75zm-4.343 4.874a.53.53 0 0 1 0-1.058.53.53 0 0 1 0 1.058z"/>
      <path fill="#59bc73" style="fill:var(--color2, #59bc73)" d="M8.471 3.765C3.794 3.766.003 7.558.003 12.236A8.47 8.47 0 0 0 12.7 19.579l-.041.022a.53.53 0 0 0-.532-.917l.003-.001a7.346 7.346 0 0 1-3.646.955 7.438 7.438 0 1 1 5.282-2.201l.001-.001a.53.53 0 1 0 .755.744 8.443 8.443 0 0 0 2.434-5.943 8.47 8.47 0 0 0-8.471-8.471h-.013.001z"/>
      <path fill="#59bc73" style="fill:var(--color2, #59bc73)" d="M9 6.941v-.53a.53.53 0 0 0-1.06 0v.53a.53.53 0 0 0 1.06 0zM8.471 17H8.47a.53.53 0 0 0-.529.529v.53a.53.53 0 0 0 1.06 0v-.53A.53.53 0 0 0 8.472 17h-.001zm5.823-4.235a.53.53 0 0 0 0-1.06h-.529a.53.53 0 0 0 0 1.06h.529zM30.224 10.998c2.008 0 3.48.382 4.417 1.144.951.75 1.426 1.78 1.426 3.092 0 .83-.201 1.579-.602 2.249-.388.656-.984 1.178-1.787 1.566-.789.375-1.767.562-2.931.562-.99 0-1.948-.147-2.871-.442-.924-.307-1.687-.73-2.289-1.265l.924-1.586c.482.455 1.098.823 1.847 1.104a6.864 6.864 0 0 0 2.335.402h.036-.002c1.058 0 1.874-.221 2.45-.663.589-.455.883-1.071.883-1.847 0-.843-.321-1.479-.964-1.907-.642-.442-1.74-.663-3.293-.663h-3.192l.743-7.349h7.931v1.747h-6.244l-.381 3.855h1.566zm19.742 5h-2.67v3.454h-1.948v-3.454h-7.81v-1.405l7.188-9.196h2.168l-6.887 8.875h5.401V11.22h1.887v3.052h2.67v1.727zm7.268-5.08c.924 0 1.747.174 2.47.522.736.348 1.311.85 1.727 1.506.415.643.622 1.385.622 2.229 0 .883-.221 1.66-.663 2.329-.429.669-1.024 1.192-1.787 1.566-.75.361-1.593.542-2.53.542-1.887 0-3.347-.609-4.377-1.827-1.018-1.218-1.526-2.945-1.526-5.18 0-1.566.274-2.898.823-3.996.562-1.111 1.338-1.948 2.329-2.51 1.004-.575 2.168-.863 3.494-.863.683 0 1.325.073 1.928.221.602.134 1.124.334 1.566.602l-.763 1.566c-.669-.442-1.566-.663-2.691-.663-1.459 0-2.604.455-3.433 1.365-.83.897-1.245 2.209-1.245 3.935 0 .214.006.382.02.502a3.759 3.759 0 0 1 1.646-1.365c.709-.321 1.506-.482 2.389-.482zm-.241 7.067c.924 0 1.673-.248 2.249-.743s.863-1.158.863-1.988-.295-1.486-.883-1.968c-.576-.496-1.352-.743-2.329-.743-.629 0-1.192.12-1.687.361a2.934 2.934 0 0 0-1.144.984 2.477 2.477 0 0 0-.402 1.36v.027-.001c0 .496.127.951.382 1.365.267.402.649.73 1.144.984.508.241 1.111.361 1.807.361z"/>
    </symbol>
    <symbol id="icon-sold" viewBox="0 0 73 32">
      <path fill="#59bc73" style="fill:var(--color2, #59bc73)" d="M8.206 10.647h1.588a.53.53 0 0 0 0-1.06H9a.53.53 0 0 0-1.06 0v.024a1.588 1.588 0 0 0 .264 3.153h.53a.53.53 0 0 1 0 1.058H7.145a.53.53 0 0 0 0 1.06h.794a.53.53 0 0 0 1.06 0v-.024a1.588 1.588 0 0 0-.264-3.153h-.53a.53.53 0 0 1 0-1.058z"/>
      <path fill="#59bc73" style="fill:var(--color2, #59bc73)" d="M8.471 6.941h-.058a5.294 5.294 0 1 0 0 10.588h.061-.003a5.295 5.295 0 0 0 .003-10.588h-.003zm0 9.53a4.235 4.235 0 1 1 0-8.47 4.235 4.235 0 1 1 0 8.47z"/>
      <path fill="#59bc73" style="fill:var(--color2, #59bc73)" d="M8.471 5.353a6.899 6.899 0 0 1 6.483 4.571l.015.048-.794.124 1.707 2.139.993-2.56-.85.132c-1.058-3.223-4.039-5.511-7.554-5.513h-.018a.53.53 0 0 0 0 1.06h.019-.001zm0 13.765a6.899 6.899 0 0 1-6.483-4.571l-.015-.048.808-.124-1.72-2.139-.993 2.56.85-.132c1.058 3.223 4.039 5.511 7.554 5.513a.53.53 0 0 0 0-1.058zM3.243 7.534h.019a.53.53 0 0 0 0-1.06h-.018.001a.53.53 0 0 0-.002 1.058h.001zm-2.115 3.643a.53.53 0 1 0 .224-1.036l-.003-.001a.53.53 0 0 0-.225 1.035l.004.001zm.592-2.02a.53.53 0 0 0 .256.066H2a.53.53 0 0 0 .252-.994l-.003-.001a.533.533 0 0 0-.792.469c0 .195.104.365.259.458l.002.001zm11.627 7.957a.53.53 0 1 0 .749.749.53.53 0 0 0-.75-.749zm1.895-1.777a.53.53 0 1 0-.257.994h.013-.001.008a.529.529 0 0 0 .457-.262l.001-.003a.53.53 0 0 0-.219-.726l-.003-.001zm.595-2.029a.534.534 0 0 0-.223 1.045l.004.001a.543.543 0 0 0 .114 0h.012a.529.529 0 0 0 .516-.412l.001-.004a.53.53 0 0 0-.42-.629l-.003-.001zM36.097 17.704v1.747H25.998v-1.365l5.722-5.522c.696-.669 1.165-1.245 1.406-1.727.241-.496.361-.991.361-1.486 0-.736-.261-1.305-.783-1.707-.508-.415-1.245-.622-2.209-.622-1.553 0-2.751.508-3.594 1.526l-1.365-1.185c.549-.67 1.265-1.192 2.148-1.566.897-.375 1.894-.562 2.992-.562 1.473 0 2.643.354 3.514 1.064.87.696 1.305 1.646 1.305 2.851v.019c0 .767-.178 1.493-.495 2.138l.013-.029c-.321.669-.931 1.432-1.827 2.289l-4.297 4.136h7.208zm5.667-6.706c2.008 0 3.48.382 4.417 1.144.951.75 1.426 1.78 1.426 3.092 0 .83-.201 1.579-.602 2.249-.388.656-.984 1.178-1.787 1.566-.79.375-1.767.562-2.931.562a9.372 9.372 0 0 1-2.871-.442c-.924-.307-1.687-.73-2.289-1.265l.924-1.586c.482.455 1.098.823 1.847 1.104.75.268 1.539.402 2.369.402 1.057 0 1.874-.221 2.45-.663.589-.455.883-1.071.883-1.847 0-.843-.321-1.479-.964-1.907-.642-.442-1.74-.663-3.293-.663h-3.192l.743-7.349h7.931v1.747h-6.244l-.382 3.855h1.566zm12.797.301c1.379.134 2.429.562 3.152 1.285.723.709 1.084 1.619 1.084 2.731 0 .803-.201 1.533-.602 2.189-.402.642-1.004 1.158-1.807 1.546-.79.375-1.761.562-2.911.562a9.44 9.44 0 0 1-2.891-.442c-.924-.307-1.68-.73-2.269-1.265l.924-1.586c.482.455 1.098.823 1.847 1.104a7.04 7.04 0 0 0 2.389.402c1.044 0 1.853-.221 2.429-.663.589-.442.883-1.051.883-1.827s-.288-1.379-.863-1.807c-.576-.429-1.446-.643-2.61-.643h-1.124V11.48l3.534-4.337H48.96V5.396h9.276v1.365l-3.674 4.538zm14.702.783c.803.307 1.419.75 1.847 1.325s.642 1.265.642 2.068c0 .843-.227 1.579-.683 2.209-.455.616-1.104 1.091-1.948 1.426s-1.833.502-2.972.502c-1.124 0-2.108-.168-2.952-.502-.83-.334-1.472-.809-1.928-1.426-.455-.629-.683-1.365-.683-2.209 0-.803.207-1.493.622-2.068.429-.575 1.044-1.017 1.847-1.325-.642-.307-1.131-.716-1.466-1.225s-.502-1.111-.502-1.807c0-.776.207-1.453.622-2.028.429-.575 1.024-1.017 1.787-1.325s1.646-.462 2.65-.462c1.018 0 1.907.154 2.67.462.777.307 1.372.75 1.787 1.325.429.575.642 1.252.642 2.028 0 .683-.174 1.285-.522 1.807-.334.508-.823.917-1.466 1.225zm-3.112-5.22c-.95 0-1.7.207-2.249.622-.548.402-.823.951-.823 1.646s.268 1.245.803 1.646c.549.402 1.305.602 2.269.602.978 0 1.741-.201 2.289-.602.562-.402.843-.951.843-1.646s-.287-1.245-.863-1.646c-.562-.415-1.318-.622-2.269-.622zm0 11.123c1.111 0 1.988-.228 2.63-.683.642-.469.964-1.098.964-1.887 0-.776-.321-1.385-.964-1.827-.642-.455-1.519-.683-2.63-.683s-1.981.228-2.61.683c-.629.442-.944 1.051-.944 1.827 0 .79.315 1.419.944 1.887.629.455 1.5.683 2.61.683z"/>
    </symbol>
    <symbol id="icon-house" viewBox="0 0 46 32">
      <path fill="#59bc73" style="fill:var(--color2, #59bc73)" d="M13.83 13.71a.229.229 0 0 1-.228-.229V12.8c0-.126.103-.229.229-.229s.229.103.229.229v.68a.23.23 0 0 1-.229.229h-.001zm0-2.283a.229.229 0 0 1-.228-.229v-.666c0-.126.103-.229.229-.229s.229.103.229.229v.666a.23.23 0 0 1-.229.229h-.001zM0 19.184a.53.53 0 0 1 .53-.53h6.253a.53.53 0 0 1 0 1.06H.529a.53.53 0 0 1-.53-.53zm12.772 0a.53.53 0 0 1 .53-.53h3.11a.53.53 0 0 1 0 1.06h-3.11a.53.53 0 0 1-.53-.53z"/>
      <path fill="#59bc73" style="fill:var(--color2, #59bc73)" d="M12.469 5.328h.003a.598.598 0 0 1 .533.592v12.781l-4.949.927a.596.596 0 0 1-.709-.585V5.464a.596.596 0 0 1 .656-.593l4.467.457zm-4.36-1.509a1.655 1.655 0 0 0-1.823 1.645v13.579c0 1.035.941 1.817 1.959 1.626l5.007-.937a.993.993 0 0 0 .809-.976V5.92c0-.854-.648-1.558-1.479-1.645l-.007-.001-4.467-.456z"/>
      <path fill="#59bc73" style="fill:var(--color2, #59bc73)" d="M8.934 13.459a.529.529 0 0 0-1.058-.001v.549a.53.53 0 0 0 1.06 0v-.019.001-.53zM2.382 7.636a2.515 2.515 0 0 1 2.515-2.515h1.919V6.18H4.897c-.804 0-1.456.652-1.456 1.456V10.3a.53.53 0 0 1-1.06 0V7.636zm.53 4.5a.53.53 0 0 1 .529.53v6.022H2.383v-6.022a.53.53 0 0 1 .53-.529zM30.674 5.396v14.055h-1.988V7.143h-3.172V5.396h5.16zm8.816 14.216c-1.111 0-2.102-.281-2.972-.843-.856-.575-1.533-1.405-2.028-2.49s-.743-2.369-.743-3.855.248-2.771.743-3.855c.496-1.084 1.171-1.907 2.028-2.47.87-.575 1.86-.863 2.972-.863 1.098 0 2.075.288 2.931.863.87.562 1.553 1.385 2.048 2.47s.743 2.369.743 3.855-.248 2.771-.743 3.855c-.496 1.084-1.178 1.914-2.048 2.49-.856.562-1.834.843-2.931.843zm0-1.787c1.124 0 2.021-.462 2.691-1.385.683-.924 1.024-2.262 1.024-4.016s-.341-3.092-1.024-4.016c-.669-.924-1.566-1.385-2.691-1.385-1.138 0-2.048.462-2.731 1.385-.669.924-1.004 2.262-1.004 4.016s.334 3.092 1.004 4.016c.683.924 1.593 1.385 2.731 1.385z"/>
    </symbol>
    <symbol id="icon-home" viewBox="0 0 77 32">
      <path fill="#59bc73" style="fill:var(--color2, #59bc73)" d="m16.75 10.24-2.721-2.266V6.129a.53.53 0 0 0-1.06 0v.019-.001.942L9.485 4.188a1.584 1.584 0 0 0-2.035.002l.003-.002L.19 10.24a.53.53 0 1 0 .679.815l-.001.001 7.263-6.055a.53.53 0 0 1 .679 0L8.809 5l6.014 5.011v9.107a.53.53 0 0 1-.53.529h-2.647V13.823c0-.877-.711-1.588-1.588-1.588H6.881c-.877 0-1.588.711-1.588 1.588v5.824H2.645a.53.53 0 0 1-.529-.529v-6.354a.53.53 0 0 0-1.06 0v6.353c0 .877.711 1.588 1.588 1.588H14.291c.877 0 1.588-.711 1.588-1.588v-8.222l.19.159a.526.526 0 0 0 .645.024l-.002.001a.53.53 0 0 0 .035-.84l-.001-.001zM6.353 19.646V13.822a.53.53 0 0 1 .53-.53h3.176a.53.53 0 0 1 .53.53v5.824H6.354z"/>
      <path fill="#59bc73" style="fill:var(--color2, #59bc73)" d="M7.941 17a.53.53 0 0 0 0-1.06.53.53 0 0 0 0 1.06zM38.486 15.998h-2.671v3.454h-1.947v-3.454h-7.811v-1.405l7.187-9.196h2.168l-6.886 8.875h5.4V11.22h1.887v3.052h2.671v1.727zm5.16-5c2.008 0 3.48.382 4.417 1.144.951.75 1.426 1.78 1.426 3.092 0 .83-.201 1.579-.602 2.249-.388.656-.984 1.178-1.787 1.566-.79.375-1.767.562-2.931.562a9.372 9.372 0 0 1-2.871-.442c-.924-.307-1.687-.73-2.289-1.265l.924-1.586c.482.455 1.098.823 1.847 1.104.75.268 1.539.402 2.369.402 1.057 0 1.874-.221 2.45-.663.589-.455.883-1.071.883-1.847 0-.843-.321-1.479-.964-1.907-.642-.442-1.74-.663-3.293-.663h-3.192l.743-7.349h7.931v1.747h-6.244l-.382 3.855h1.566zm13.256 8.614c-1.111 0-2.102-.281-2.972-.843-.856-.575-1.533-1.405-2.028-2.49s-.743-2.369-.743-3.855.248-2.771.743-3.855c.496-1.084 1.171-1.907 2.028-2.47.87-.575 1.86-.863 2.972-.863 1.098 0 2.075.288 2.931.863.87.562 1.553 1.385 2.048 2.47s.743 2.369.743 3.855-.248 2.771-.743 3.855c-.496 1.084-1.178 1.914-2.048 2.49-.856.562-1.834.843-2.931.843zm0-1.787c1.124 0 2.021-.462 2.691-1.385.683-.924 1.024-2.262 1.024-4.016s-.341-3.092-1.024-4.016c-.669-.924-1.566-1.385-2.691-1.385-1.138 0-2.048.462-2.731 1.385-.669.924-1.004 2.262-1.004 4.016s.334 3.092 1.004 4.016c.683.924 1.593 1.385 2.731 1.385zm13.393 1.787c-1.111 0-2.102-.281-2.972-.843-.857-.575-1.533-1.405-2.028-2.49s-.743-2.369-.743-3.855.247-2.771.743-3.855c.495-1.084 1.171-1.907 2.028-2.47.87-.575 1.86-.863 2.972-.863 1.097 0 2.074.288 2.931.863.87.562 1.552 1.385 2.048 2.47s.743 2.369.743 3.855-.248 2.771-.743 3.855c-.496 1.084-1.178 1.914-2.048 2.49-.857.562-1.834.843-2.931.843zm0-1.787c1.124 0 2.021-.462 2.691-1.385.683-.924 1.024-2.262 1.024-4.016s-.341-3.092-1.024-4.016c-.669-.924-1.566-1.385-2.691-1.385-1.138 0-2.048.462-2.731 1.385-.669.924-1.004 2.262-1.004 4.016s.334 3.092 1.004 4.016c.683.924 1.592 1.385 2.731 1.385z"/>
    </symbol>
    <symbol id="icon-phone" viewBox="0 0 32 32">
      <path fill="none" stroke="#59bc73" style="stroke:var(--color2, #59bc73)" stroke-width="2.021" d="m24.77 19.717 4.46 4.46a1.531 1.531 0 0 1 0 2.172 9.186 9.186 0 0 1-6.515 2.698 9.17 9.17 0 0 1-5.552-1.86l.023.017-2.653-1.991a39.078 39.078 0 0 1-7.677-7.65l-.071-.097-1.991-2.653a9.147 9.147 0 0 1-1.843-5.529 9.186 9.186 0 0 1 2.698-6.515 1.531 1.531 0 0 1 2.172 0l4.46 4.46c.305.305.493.726.493 1.191s-.188.886-.493 1.191l-1.72 1.72a.893.893 0 0 0-.167 1.042l-.002-.005c2.037 4.015 5.221 7.199 9.119 9.182l.117.054a.893.893 0 0 0 1.037-.169l1.718-1.718c.305-.305.726-.494 1.192-.494s.887.189 1.192.494z"/>
    </symbol>
    <symbol id="icon-logo" viewBox="0 0 96 32">
      <path fill="#232a31" style="fill:var(--color4, #232a31)" d="M35.542 10.581h1.618v8.646h-1.483v-6.126l-2.853 4.409-2.841-4.409v6.126h-1.482v-8.646h1.618l2.705 4.199 2.717-4.199zm7.713.012 3.903 8.646h-1.631l-1.334-2.965-1.754-3.878-1.754 3.878h2.248l.667 1.482h-3.582l-.667 1.482h-1.63l3.903-8.646h1.63zm12.576 0-3.285 4.322 3.285 4.323h-1.853l-2.359-3.1-2.359 3.1h-1.853l3.285-4.322-3.285-4.323h1.853l2.359 3.1 2.359-3.1h1.853zm2.101.012v8.633H56.45v-8.633h1.482zm7.969-.024h1.618v8.646h-1.482v-6.126l-2.853 4.409-2.841-4.409v6.126h-1.482v-8.646h1.618l2.705 4.199 2.717-4.199zm4.032.024v8.633h-1.482v-8.633h1.482zm2.411 7.152h3.396v1.482h-4.878v-8.633h1.482v7.151zm5.887-7.152v8.633h-1.482v-8.633h1.482zm5.301 1.285a2.88 2.88 0 0 0-1.149.234c-.38.159-.704.38-.975.655-.275.273-.5.597-.659.956l-.008.02a2.943 2.943 0 0 0-.222 1.134v.015-.001c0 .404.074.79.222 1.161.157.363.379.688.667.976.271.274.596.495.956.647l.019.007c.362.148.746.223 1.149.223s.787-.074 1.149-.223a2.93 2.93 0 0 0 .988-.654c.274-.271.496-.596.648-.956l.007-.019c.148-.371.222-.758.222-1.161s-.074-.786-.222-1.149a2.987 2.987 0 0 0-.655-.976 2.917 2.917 0 0 0-.969-.647l-.019-.007a2.814 2.814 0 0 0-1.137-.235h-.013.001zm0-1.482a4.28 4.28 0 0 1 1.742.358 4.326 4.326 0 0 1 1.432.963l.001.001c.404.398.73.874.953 1.405l.011.028c.239.544.358 1.124.358 1.741s-.119 1.202-.358 1.754a4.515 4.515 0 0 1-.963 1.433 4.572 4.572 0 0 1-1.403.952l-.03.011a4.336 4.336 0 0 1-1.713.346h-.03.002-.023a4.485 4.485 0 0 1-1.76-.357l.029.011a4.782 4.782 0 0 1-1.433-.964l.001.001a4.79 4.79 0 0 1-.952-1.402l-.012-.03a4.43 4.43 0 0 1-.346-1.732v-.023.001-.028c0-.619.127-1.208.357-1.742l-.011.029c.24-.556.565-1.032.964-1.433.4-.401.875-.726 1.403-.952l.029-.011a4.302 4.302 0 0 1 1.732-.358h.023-.001zm10.317.173h1.483v8.646h-1.606l-3.471-5.916v5.916h-1.482v-8.646h1.606l3.47 5.916v-5.916zm-50.523 17.35v2h-.559v-4.81h1.319c.59 0 1.025.113 1.306.339.283.226.425.566.425 1.02 0 .636-.322 1.066-.967 1.29l1.306 2.161h-.661l-1.164-2h-1.003zm0-.481h.767c.395 0 .684-.078.868-.234.184-.158.277-.394.277-.707 0-.318-.095-.547-.283-.688-.186-.14-.487-.21-.901-.21h-.727v1.839zm8.105 2.48H48.75v-4.81h2.681v.497h-2.122v1.549h1.994v.493h-1.994v1.77h2.122v.5zm5.911 0-.598-1.53h-1.928l-.592 1.53h-.566l1.901-4.829h.47l1.892 4.829h-.579zm-.773-2.033-.559-1.49a8.247 8.247 0 0 1-.224-.694c-.048.21-.117.442-.207.694l-.566 1.49h1.556zm3.832 2.033v-4.81h.559v4.303h2.122v.506h-2.681zm6.799 0h-.559v-4.313h-1.523v-.497h3.605v.497H67.2v4.313zm5.293-2.404 1.283-2.405h.605l-1.605 2.944v1.865h-.566v-1.839l-1.602-2.971h.612l1.273 2.405zm7.94 2.404v-4.81h.559v4.81h-.559zm7.458 0h-.639l-2.628-4.036h-.026c.035.474.053.907.053 1.302v2.734h-.516v-4.81h.632l2.622 4.02h.026a54.262 54.262 0 0 1-.03-.569 9.731 9.731 0 0 1-.017-.59l.001-.106v.005-2.76h.523v4.81zm5.2-4.378c-.528 0-.946.177-1.253.529-.305.351-.457.832-.457 1.444 0 .63.147 1.116.441 1.461.296.342.717.513 1.263.513.336 0 .718-.06 1.148-.181v.49c-.333.125-.745.187-1.234.187-.708 0-1.255-.215-1.642-.645-.384-.43-.576-1.04-.576-1.832 0-.495.092-.93.277-1.302a2.01 2.01 0 0 1 .802-.862c.351-.202.763-.302 1.237-.302.504 0 .945.092 1.323.276l-.237.48a2.548 2.548 0 0 0-1.092-.256z"/>
      <path fill="none" stroke="#232a31" style="stroke:var(--color4, #232a31)" stroke-width=".959" d="M8.726 17.568v11.474m14.938-.001V1.433L17.21 6.811v22.23"/>
      <path fill="none" stroke="#232a31" style="stroke:var(--color4, #232a31)" stroke-width=".959" d="M19.003 29.041V10.038H12.19v19.003"/>
      <path fill="none" stroke="#232a31" style="stroke:var(--color4, #232a31)" stroke-width=".959" d="M21.513 27.157v-3.494H36.93v7.171H0"/>
      <path fill="#59bc73" style="fill:var(--color2, #59bc73)" d="M26.891 25.695h7.171v2.869h-7.171z"/>
    </symbol>
    <symbol id="icon-menu" viewBox="0 0 36 32">
      <path stroke-linecap="round" stroke-width="3.2" d="M33.28 5.12H2.56m30.72 21.76H2.56M33.28 16H8.506"/>
    </symbol>
    <symbol id="icon-facebook" viewBox="0 0 32 32">
      <path stroke-width="1.477" d="M3.692.738h24.615a2.954 2.954 0 0 1 2.954 2.954v24.615a2.954 2.954 0 0 1-2.954 2.954H3.692a2.954 2.954 0 0 1-2.954-2.954V3.692A2.954 2.954 0 0 1 3.692.738z"/>
      <path stroke-linecap="round" stroke-width="1.477" d="M21.894 8.421c-6.737-.842-5.895 6.737-5.895 8.421v13.473m-5.051-11.788h10.105"/>
    </symbol>
    <symbol id="icon-logosecond" viewBox="0 0 63 32">
      <path fill="#fff" style="fill: var(--color1, #fff)" d="M41.703 13.044h17.355c-0.081-0.305-0.547-1.361-2.859-0.955 0.385-0.345 0.629-0.853 0.527-1.341-0.041-0.142-0.101-0.284-0.203-0.406-0.101-0.102-0.223-0.162-0.345-0.203-0.912-0.325-2.514 0.935-2.514 0.935 1.967-3.088-3.386-4.388-3.426-0.467 0 0-0.791-1.402-1.642-1.016-0.345 0.203-0.142 0.792 0.020 1.056-2.514-1.219-4.785-0.467-3.73 0.914-2.473 0.041-3.183 1.483-3.183 1.483zM20.606 7.059h10.502c-0.041-0.183-0.325-0.813-1.723-0.569 0.223-0.203 0.385-0.508 0.325-0.813-0.020-0.081-0.061-0.183-0.122-0.244s-0.142-0.102-0.203-0.122c-0.547-0.203-1.52 0.569-1.52 0.569 1.196-1.869-2.048-2.662-2.068-0.284 0 0-0.466-0.853-0.993-0.61-0.203 0.122-0.081 0.488 0.020 0.65-1.52-0.731-2.899-0.284-2.25 0.549-1.541 0.020-1.967 0.874-1.967 0.874z"></path>
      <path fill="#f9aa41" style="fill: var(--color2, #f9aa41)" d="M40.15 3.254c0.744-0.746 0.744-1.955 0-2.701s-1.951-0.746-2.695 0c-0.744 0.746-0.744 1.955 0 2.701s1.951 0.746 2.695 0z"></path>
      <path fill="#fff" style="fill: var(--color1, #fff)" d="M15.834 8.919h-3.001v5.587h3.001v-5.587z"></path>
      <path fill="#9bb8cc" style="fill: var(--color3, #9bb8cc)" d="M12.833 10.321v0.549l3.001-0.345v-0.203h-3.001z"></path>
      <path fill="#133b53" style="fill: var(--color4, #133b53)" d="M16.179 9.651h-3.71v0.67h3.71v-0.67z"></path>
      <path fill="#479da3" style="fill: var(--color5, #479da3)" d="M52.428 31.898h9.995c-0.142-0.447-0.507-0.813-0.912-0.975-0.446-0.183-0.933-0.142-1.399-0.020 0.081-0.020 0.203-0.183 0.264-0.244 0.142-0.163 0.264-0.325 0.284-0.528 0.041-0.244-0.041-0.488-0.182-0.67-0.243-0.305-0.669-0.427-1.054-0.386h-0.061c-0.081 0.020-0.142 0.020-0.223 0.061-0.304 0.122-0.588 0.325-0.811 0.569-0.041 0.041-0.081 0.081-0.122 0.142 0 0 0.649-0.549 0.811-0.955 0.568-1.178-0.629-2.865-2.108-2.377-0.588 0.244-1.075 0.772-1.399 1.382 1.196-1.788-0.791-2.865-1.48-1.26 0.426-1.321-0.203-2.702-1.52-1.93-0.020 0-0.041 0.020-0.061 0.020v7.172h-0.020z"></path>
      <path fill="#7bbfba" style="fill: var(--color6, #7bbfba)" d="M52.428 31.898h5.9c-0.081-0.264-0.304-0.488-0.547-0.569-0.264-0.102-0.547-0.081-0.831 0 0.142-0.264-0.041-0.63-0.304-0.732s-0.568-0.020-0.811 0.122c0.223-0.102 0.385-0.325 0.466-0.569 0.325-0.691-0.365-1.686-1.237-1.402-0.345 0.142-0.629 0.447-0.831 0.813 0.71-1.056-0.466-1.686-0.872-0.752 0.405-1.036-0.365-1.646-0.933-1.402v4.49z"></path>
      <path fill="#479da3" style="fill: var(--color5, #479da3)" d="M58.531 26.25c-0.162 0.142-0.385 0.122-0.385 0.122s0.020-0.244 0.182-0.386c0.162-0.142 0.385-0.122 0.385-0.122s-0.020 0.244-0.182 0.386z"></path>
      <path fill="#7bbfba" style="fill: var(--color6, #7bbfba)" d="M53.989 27.916c-0.122 0.203-0.365 0.285-0.365 0.285s-0.061-0.285 0.061-0.488c0.122-0.203 0.365-0.285 0.365-0.285s0.061 0.264-0.061 0.488z"></path>
      <path fill="#479da3" style="fill: var(--color5, #479da3)" d="M58.065 25.702c0.061 0.305-0.081 0.61-0.081 0.61s-0.264-0.183-0.324-0.488c-0.061-0.305 0.081-0.609 0.081-0.609s0.243 0.183 0.324 0.488z"></path>
      <path fill="#994f61" style="fill: var(--color7, #994f61)" d="M4.744 31.878l0.142-2.235-1.237-1.422 0.081-0.061 0.73 0.61 0.101-0.61 0.122 0.020-0.020 0.772 0.304 0.305 0.101-2.296-0.608-0.752 0.081-0.041 0.628 0.488 0.041-1.178h0.162l0.101 1.463 0.162 1.463 0.811-0.894 0.081 0.041-0.304 0.467h0.527v0.081l-0.568 0.102-0.568 0.874 0.122 2.804h-0.993z"></path>
      <path fill="#479da3" style="fill: var(--color5, #479da3)" d="M9.995 23.792c0-0.284-0.020-0.569-0.122-0.813-0.122-0.244-0.345-0.467-0.629-0.508-0.162-0.020-0.345 0.020-0.426 0.142 0.304-0.386 0.588-0.813 0.71-1.3s0.061-1.036-0.264-1.402c-0.304-0.366-0.811-0.528-1.298-0.447-0.466 0.061-0.892 0.345-1.216 0.711 0.041-0.752 0.203-1.503 0.061-2.235s-0.71-1.463-1.46-1.443c-0.507 0.020-0.933 0.386-1.257 0.772-0.669 0.813-1.075 1.829-1.156 2.885-0.203-0.264-0.385-0.528-0.649-0.731s-0.588-0.345-0.912-0.285c-0.527 0.081-0.872 0.63-1.014 1.158-0.142 0.569-0.122 1.158 0.061 1.707 0.284 0.914 0.973 1.646 1.642 2.316-0.304-0.142-0.689 0.041-0.831 0.345-0.203 0.406 0 0.874 0.264 1.199 0.243 0.264 0.547 0.467 0.872 0.63 1.784 0.894 3.974 0.772 5.778-0.020 0.669-0.285 1.135-0.772 1.5-1.422 0.243-0.366 0.345-0.813 0.345-1.26zM4.237 27.591c-0.081-0.102-0.324-0.142-0.324 0.041-0.081-0.549-0.791-0.345-0.446 0.183-0.547-0.569-1.034 0.163-0.324 0.488-0.608 0.020-0.264 0.874 0.264 0.508-0.223 0.122-0.081 0.406 0.162 0.386 0.608-0.122 1.237-1.097 0.669-1.605z"></path>
      <path fill="#7bbfba" style="fill: var(--color6, #7bbfba)" d="M3.163 25.966c-0.041-0.142-0.081-0.305-0.061-0.447 0.020-0.163 0.101-0.305 0.243-0.366 0.038-0.019 0.084-0.031 0.132-0.031s0.093 0.011 0.134 0.031l-0.002-0.001c-0.223-0.163-0.446-0.345-0.588-0.569-0.142-0.244-0.203-0.528-0.081-0.792 0.101-0.244 0.345-0.406 0.608-0.447s0.527 0.041 0.75 0.183c-0.142-0.386-0.345-0.772-0.385-1.178s0.142-0.894 0.547-0.995c0.264-0.061 0.547 0.061 0.791 0.203 0.487 0.325 0.872 0.792 1.075 1.341 0.061-0.183 0.122-0.345 0.223-0.508 0.101-0.142 0.263-0.264 0.446-0.305 0.304-0.041 0.568 0.203 0.71 0.447 0.152 0.263 0.242 0.578 0.243 0.914v0c0 0.528-0.264 1.016-0.507 1.503 0.142-0.122 0.365-0.081 0.507 0.041 0.162 0.183 0.142 0.467 0.040 0.67-0.081 0.183-0.223 0.345-0.365 0.467-0.811 0.772-1.987 1.057-3.082 0.914-0.405-0.041-0.73-0.224-1.014-0.508-0.162-0.122-0.284-0.325-0.365-0.569z"></path>
      <path fill="#479da3" style="fill: var(--color5, #479da3)" d="M1.135 24.096c0.101 0.183 0.040 0.427 0.040 0.427s-0.223-0.081-0.324-0.264c-0.101-0.183-0.041-0.427-0.041-0.427s0.223 0.081 0.325 0.264zM0.507 24.503c0.284-0.020 0.547 0.203 0.547 0.203s-0.223 0.244-0.507 0.264c-0.284 0.020-0.547-0.203-0.547-0.203s0.223-0.264 0.507-0.264zM6.934 28.282c-0.101-0.041-0.162-0.163-0.162-0.163s0.122-0.041 0.223 0c0.101 0.041 0.162 0.163 0.162 0.163s-0.122 0.041-0.223 0zM7.055 27.916c-0.122 0.102-0.284 0.102-0.284 0.102s0.020-0.183 0.122-0.285c0.122-0.102 0.284-0.102 0.284-0.102s0 0.183-0.122 0.285z"></path>
      <path fill="#7bbfba" style="fill: var(--color6, #7bbfba)" d="M6.913 21.76c-0.142 0.163-0.385 0.163-0.385 0.163s0-0.244 0.142-0.386c0.142-0.163 0.385-0.163 0.385-0.163s0 0.244-0.142 0.386zM3.305 22.979c0.142 0.061 0.203 0.203 0.203 0.203s-0.162 0.061-0.284 0.020c-0.142-0.061-0.203-0.203-0.203-0.203s0.142-0.061 0.284-0.020zM6.346 21.293c0.101 0.285-0.020 0.569-0.020 0.569s-0.304-0.142-0.405-0.427c-0.101-0.284 0.020-0.569 0.020-0.569s0.304 0.142 0.405 0.427zM3.893 28.851h-0.162c-0.081 0-0.142-0.041-0.203-0.102-0.041-0.041-0.061-0.122-0.041-0.183 0.041-0.081 0.142-0.061 0.203-0.142 0.020-0.041 0.020-0.081 0.020-0.142 0-0.041-0.020-0.102 0-0.142s0.061-0.081 0.101-0.081c0.041 0 0.061 0.041 0.081 0.061s0.041 0.020 0.061 0.020c0.081 0 0.101-0.122 0.203-0.122 0.101 0.020 0.142 0.122 0.183 0.203 0.040 0.142 0.020 0.305-0.081 0.427-0.101 0.142-0.243 0.183-0.365 0.203z"></path>
      <path fill="#133b53" style="fill: var(--color4, #133b53)" d="M42.089 7.131l-21.288-0.366-12.347 11.886h45.576l-11.941-11.52z"></path>
      <path fill="#fff" style="fill: var(--color1, #fff)" d="M52.976 18.651h-13.827v12.394h13.827v-12.394z"></path>
      <path fill="#f43d4f" style="fill: var(--color8, #f43d4f)" d="M52.976 18.651h-1.521v12.394h1.521v-12.394zM40.669 18.651h-1.52v12.394h1.52v-12.394z"></path>
      <path fill="#e1ecef" style="fill: var(--color9, #e1ecef)" d="M51.455 20.46h-10.806v0.163h10.806v-0.163zM51.455 22.207h-10.806v0.162h10.806v-0.162zM51.455 23.954h-10.806v0.163h10.806v-0.163zM51.455 25.702h-10.806v0.163h10.806v-0.163zM51.455 27.449h-10.806v0.163h10.806v-0.163zM51.455 29.176h-10.806v0.163h10.806v-0.163z"></path>
      <path fill="#b72e41" style="fill: var(--color10, #b72e41)" d="M40.669 20.46h-1.52v0.163h1.52v-0.163zM40.669 22.207h-1.52v0.162h1.52v-0.162zM40.669 23.954h-1.52v0.163h1.52v-0.163zM40.669 25.702h-1.52v0.163h1.52v-0.163zM40.669 27.449h-1.52v0.163h1.52v-0.163zM40.669 29.176h-1.52v0.163h1.52v-0.163zM52.976 20.46h-1.521v0.163h1.521v-0.163zM52.976 22.207h-1.521v0.162h1.521v-0.162zM52.976 23.954h-1.521v0.163h1.521v-0.163zM52.976 25.702h-1.521v0.163h1.521v-0.163zM52.976 27.449h-1.521v0.163h1.521v-0.163zM52.976 29.176h-1.521v0.163h1.521v-0.163z"></path>
      <path fill="#fff" style="fill: var(--color1, #fff)" d="M23.335 18.651h-13.827v12.394h13.827v-12.394z"></path>
      <path fill="#e1ecef" style="fill: var(--color9, #e1ecef)" d="M23.214 20.46h-13.705v0.163h13.705v-0.163zM23.214 22.207h-13.705v0.162h13.705v-0.162zM23.214 23.954h-13.705v0.163h13.705v-0.163zM23.214 25.702h-13.705v0.163h13.705v-0.163zM23.214 27.449h-13.705v0.163h13.705v-0.163zM23.214 29.176h-13.705v0.163h13.705v-0.163z"></path>
      <path fill="#f43d4f" style="fill: var(--color8, #f43d4f)" d="M20.983 21.212h-9.103v9.854h9.103v-9.854z"></path>
      <path fill="#b72e41" style="fill: var(--color10, #b72e41)" d="M20.983 21.638l-9.103 1.483v-1.91h9.103v0.427z"></path>
      <path fill="#9bb8cc" style="fill: var(--color3, #9bb8cc)" d="M23.355 31.065h-0.608l0.365-12.414h0.243v12.414z"></path>
      <path fill="#9bb8cc" style="fill: var(--color3, #9bb8cc)" d="M23.355 18.855l-13.847 0.772v-0.975h13.847v0.203zM40.649 18.651v0.894l10.806-0.61v-0.284h-10.806z"></path>
      <path fill="#b72e41" style="fill: var(--color10, #b72e41)" d="M51.455 18.651v0.284l1.521-0.081v-0.203h-1.521zM39.149 18.651v0.975l1.5-0.081v-0.894h-1.5z"></path>
      <path fill="#fff" style="fill: var(--color1, #fff)" d="M39.149 31.065h-15.793v-19.281l7.887-6.177 7.907 6.176v19.281z"></path>
      <path fill="#9bb8cc" style="fill: var(--color3, #9bb8cc)" d="M31.242 5.608l-7.887 6.177v1.402l7.522-5.851 8.272 6.481v-2.032l-7.907-6.176z"></path>
      <path fill="#fff" style="fill: var(--color1, #fff)" d="M40.406 11.947l-9.164-6.888-9.143 6.949 0.892 0.894 8.251-6.441 8.231 6.42 0.933-0.935z"></path>
      <path fill="#7bbfba" style="fill: var(--color6, #7bbfba)" d="M53.422 31.065h-44.805v0.853h44.805v-0.853z"></path>
      <path fill="#fff" style="fill: var(--color1, #fff)" d="M19.483 23.345h-6.082v7.721h6.082v-7.721z"></path>
      <path fill="#133b53" style="fill: var(--color4, #133b53)" d="M16.219 23.69h-2.372v6.928h2.372v-6.928zM19.017 23.69h-2.372v6.928h2.372v-6.928z"></path>
      <path fill="#b72e41" style="fill: var(--color10, #b72e41)" d="M19.483 23.223h-6.204l-0.081 7.843h0.203v-7.721h6.082v-0.122z"></path>
      <path fill="#fff" style="fill: var(--color1, #fff)" d="M50.381 23.345h-8.698v5.242h8.698v-5.242z"></path>
      <path fill="#133b53" style="fill: var(--color4, #133b53)" d="M43.548 23.69h-1.46v4.49h1.46v-4.49zM48.13 23.69h-4.156v4.49h4.156v-4.49zM50.016 23.69h-1.46v4.49h1.46v-4.49z"></path>
      <path fill="#9bb8cc" style="fill: var(--color3, #9bb8cc)" d="M50.381 23.264h-8.819l-0.101 5.323h0.223v-5.242h8.698v-0.081z"></path>
      <path fill="#9bb8cc" style="fill: var(--color3, #9bb8cc)" d="M41.683 28.546h8.698v0.122l-8.921 0.366v-0.488h0.223z"></path>
      <path fill="#133b53" style="fill: var(--color4, #133b53)" d="M28.221 23.69h-2.372v6.928h2.372v-6.928zM31.039 23.69h-2.372v6.928h2.372v-6.928zM33.837 23.69h-2.372v6.928h2.372v-6.928zM36.635 23.69h-2.372v6.928h2.372v-6.928z"></path>
      <path fill="#9bb8cc" style="fill: var(--color3, #9bb8cc)" d="M36.919 23.264h-11.637l-0.182 7.802h0.365v-7.721h11.455v-0.081z"></path>
      <path fill="#133b53" style="fill: var(--color4, #133b53)" d="M31.039 11.906h-2.372v6.928h2.372v-6.928zM33.837 11.906h-2.372v6.928h2.372v-6.928z"></path>
      <path fill="#9bb8cc" style="fill: var(--color3, #9bb8cc)" d="M34.222 11.479h-6.123l-0.182 7.782h0.365v-7.721h5.94v-0.061z"></path>
      <path fill="#133b53" style="fill: var(--color4, #133b53)" d="M37.466 19.22h-12.428v0.63h12.428v-0.63z"></path>
      <path fill="#9bb8cc" style="fill: var(--color3, #9bb8cc)" d="M37.466 19.85h-12.428v-0.63l-0.487 0.63v0.61l12.914-0.467v-0.142z"></path>
      <path fill="#7bbfba" style="fill: var(--color6, #7bbfba)" d="M25.788 17.473h-0.203v1.747h0.203v-1.747zM32.519 17.473h-0.203v1.747h0.203v-1.747zM30.269 17.473h-0.203v1.747h0.203v-1.747zM34.749 17.473h-0.203v1.747h0.203v-1.747zM28.019 17.473h-0.203v1.747h0.203v-1.747zM37 17.473h-0.203v1.747h0.203v-1.747z"></path>
      <path fill="#4a938c" style="fill: var(--color11, #4a938c)" d="M25.788 17.473h-0.203v0.163h0.203v-0.163zM32.519 17.473h-0.203v0.163h0.203v-0.163zM30.269 17.473h-0.203v0.163h0.203v-0.163zM34.749 17.473h-0.203v0.163h0.203v-0.163zM28.019 17.473h-0.203v0.163h0.203v-0.163zM37 17.473h-0.203v0.163h0.203v-0.163z"></path>
      <path fill="#7bbfba" style="fill: var(--color6, #7bbfba)" d="M37.182 17.473h-11.88v-0.447l11.88 0.102v0.345z"></path>
      <path fill="#b6ccd8" style="fill: var(--color12, #b6ccd8)" d="M9.204 30.151h-6.913v0.264h6.913v-0.264zM9.204 31.228h-6.913v0.264h6.913v-0.264z"></path>
      <path fill="#fff" style="fill: var(--color1, #fff)" d="M3.021 31.878h-0.466c-0.020 0-0.061-0.020-0.061-0.041v-2.011c0-0.020 0-0.020 0.020-0.020l0.243-0.284c0.011-0.010 0.025-0.015 0.041-0.015s0.030 0.006 0.041 0.015l-0-0 0.243 0.284 0.020 0.020v2.011c-0.041 0.020-0.061 0.041-0.081 0.041zM3.994 31.878h-0.466c-0.020 0-0.061-0.020-0.061-0.041v-2.011c0-0.020 0-0.020 0.020-0.020l0.243-0.284c0.011-0.009 0.025-0.015 0.041-0.015s0.030 0.006 0.041 0.015l-0-0 0.243 0.284 0.020 0.020v2.011c-0.020 0.020-0.040 0.041-0.081 0.041zM4.967 31.878h-0.466c-0.020 0-0.061-0.020-0.061-0.041v-2.011c0-0.020 0-0.020 0.020-0.020l0.243-0.284c0.011-0.010 0.025-0.015 0.041-0.015s0.030 0.006 0.041 0.015l-0-0 0.243 0.284 0.020 0.020v2.011c-0.020 0.020-0.041 0.041-0.081 0.041zM5.96 31.878h-0.466c-0.020 0-0.061-0.020-0.061-0.041v-2.011c0-0.020 0-0.020 0.020-0.020l0.243-0.284c0.011-0.010 0.025-0.015 0.041-0.015s0.030 0.006 0.041 0.015l-0-0 0.243 0.284 0.020 0.020v2.011c-0.040 0.020-0.061 0.041-0.081 0.041zM6.934 31.878h-0.466c-0.020 0-0.061-0.020-0.061-0.041v-2.011c0-0.020 0-0.020 0.020-0.020l0.243-0.284c0.011-0.009 0.025-0.015 0.040-0.015s0.030 0.006 0.041 0.015l-0-0 0.243 0.284 0.020 0.020v2.011c-0.020 0.020-0.061 0.041-0.081 0.041zM7.907 31.878h-0.466c-0.020 0-0.061-0.020-0.061-0.041v-2.011c0-0.020 0-0.020 0.020-0.020l0.243-0.284c0.011-0.009 0.025-0.015 0.041-0.015s0.030 0.006 0.041 0.015l-0-0 0.243 0.284 0.020 0.020v2.011c-0.020 0.020-0.040 0.041-0.081 0.041zM8.9 31.878h-0.466c-0.020 0-0.061-0.020-0.061-0.041v-2.011c0-0.020 0-0.020 0.020-0.020l0.243-0.284c0.011-0.009 0.025-0.015 0.041-0.015s0.030 0.006 0.041 0.015l-0-0 0.243 0.284 0.020 0.020v2.011c-0.040 0.020-0.061 0.041-0.081 0.041z"></path>
      <path fill="#b6ccd8" style="fill: var(--color12, #b6ccd8)" d="M61.714 30.151h-9.792v0.264h9.792v-0.264zM61.714 31.228h-9.792v0.264h9.792v-0.264z"></path>
      <path fill="#fff" style="fill: var(--color1, #fff)" d="M52.672 31.878h-0.466c-0.020 0-0.061-0.020-0.061-0.041v-2.011c0-0.020 0-0.020 0.020-0.020l0.243-0.284c0.011-0.009 0.025-0.015 0.041-0.015s0.030 0.006 0.041 0.015l-0-0 0.243 0.284 0.020 0.020v2.011c-0.041 0.020-0.061 0.041-0.081 0.041zM53.645 31.878h-0.466c-0.020 0-0.061-0.020-0.061-0.041v-2.011c0-0.020 0-0.020 0.020-0.020l0.243-0.284c0.011-0.009 0.025-0.015 0.041-0.015s0.030 0.006 0.041 0.015l-0-0 0.243 0.284 0.020 0.020v2.011c-0.041 0.020-0.061 0.041-0.081 0.041zM54.618 31.878h-0.466c-0.020 0-0.061-0.020-0.061-0.041v-2.011c0-0.020 0-0.020 0.020-0.020l0.243-0.284c0.020-0.020 0.061-0.020 0.081 0l0.243 0.284 0.020 0.020v2.011c-0.020 0.020-0.041 0.041-0.081 0.041zM55.591 31.878h-0.466c-0.020 0-0.061-0.020-0.061-0.041v-2.011c0-0.020 0-0.020 0.020-0.020l0.243-0.284c0.011-0.009 0.025-0.015 0.041-0.015s0.030 0.006 0.041 0.015l-0-0 0.243 0.284 0.020 0.020v2.011c-0.020 0.020-0.041 0.041-0.081 0.041zM56.584 31.878h-0.466c-0.020 0-0.061-0.020-0.061-0.041v-2.011c0-0.020 0-0.020 0.020-0.020l0.243-0.284c0.020-0.020 0.061-0.020 0.081 0l0.243 0.284 0.020 0.020v2.011c-0.041 0.020-0.061 0.041-0.081 0.041zM57.558 31.878h-0.466c-0.020 0-0.061-0.020-0.061-0.041v-2.011c0-0.020 0-0.020 0.020-0.020l0.243-0.284c0.011-0.009 0.025-0.015 0.041-0.015s0.030 0.006 0.041 0.015l-0-0 0.243 0.284 0.020 0.020v2.011c-0.020 0.020-0.061 0.041-0.081 0.041zM58.531 31.878h-0.466c-0.020 0-0.061-0.020-0.061-0.041v-2.011c0-0.020 0-0.020 0.020-0.020l0.243-0.284c0.020-0.020 0.061-0.020 0.081 0l0.243 0.284 0.020 0.020v2.011c-0.020 0.020-0.041 0.041-0.081 0.041zM59.524 31.878h-0.466c-0.020 0-0.061-0.020-0.061-0.041v-2.011c0-0.020 0-0.020 0.020-0.020l0.243-0.284c0.020-0.020 0.061-0.020 0.081 0l0.243 0.284 0.020 0.020v2.011c-0.041 0.020-0.061 0.041-0.081 0.041zM60.497 31.878h-0.466c-0.020 0-0.061-0.020-0.061-0.041v-2.011c0-0.020 0-0.020 0.020-0.020l0.243-0.284c0.011-0.009 0.025-0.015 0.041-0.015s0.030 0.006 0.041 0.015l-0-0 0.243 0.284 0.020 0.020v2.011c-0.041 0.020-0.061 0.041-0.081 0.041zM61.471 31.878h-0.466c-0.020 0-0.061-0.020-0.061-0.041v-2.011c0-0.020 0-0.020 0.020-0.020l0.243-0.284c0.011-0.009 0.025-0.015 0.041-0.015s0.030 0.006 0.041 0.015l-0-0 0.243 0.284 0.020 0.020v2.011c-0.020 0.020-0.061 0.041-0.081 0.041z"></path>
      <path fill="#133b53" style="fill: var(--color4, #133b53)" d="M62.667 31.797h-61.025v0.203h61.025v-0.203z"></path>
</symbol>
  </defs>
</svg>
