<svg aria-hidden="true" style="position:absolute;width:0;height:0;overflow:hidden" xmlns="http://www.w3.org/2000/svg">
  <defs>

    <symbol id="icon-check-border" viewBox="0 0 31 32">
      <path fill="none" stroke="#cbcbcd" style="stroke:var(--color1, #cbcbcd)" stroke-width="1.454" d="M4.364 1.636h21.818a3.636 3.636 0 0 1 3.636 3.636V27.09a3.636 3.636 0 0 1-3.636 3.636H4.364A3.636 3.636 0 0 1 .728 27.09V5.272a3.636 3.636 0 0 1 3.636-3.636z"/>
    </symbol>
    <symbol id="icon-check" viewBox="0 0 30 32">
      <path fill="#59bc73" style="fill:var(--color2, #59bc73)" d="M6.857 1.429h16a6.857 6.857 0 0 1 6.857 6.857v16a6.857 6.857 0 0 1-6.857 6.857h-16A6.857 6.857 0 0 1 0 24.286v-16a6.857 6.857 0 0 1 6.857-6.857z"/>
    </symbol>
    <symbol id="icon-logo-footer" viewBox="0 0 41 32">
<path fill="#fff" style="fill: var(--color1, #fff)" d="M4.151 20.272h0.896v4.786h-0.82v-3.391l-1.579 2.441-1.573-2.441v3.391h-0.82v-4.786h0.896l1.497 2.325 1.504-2.325zM8.42 20.279l2.161 4.786h-0.903l-0.738-1.641-0.971-2.147-0.971 2.147h1.244l0.369 0.82h-1.983l-0.369 0.82h-0.902l2.161-4.786h0.902zM15.381 20.279l-1.819 2.393 1.819 2.393h-1.025l-1.306-1.716-1.306 1.716h-1.025l1.819-2.393-1.819-2.393h1.025l1.306 1.716 1.306-1.716h1.025zM16.544 20.285v4.779h-0.82v-4.779h0.82zM20.955 20.272h0.896v4.786h-0.82v-3.391l-1.579 2.441-1.573-2.441v3.391h-0.82v-4.786h0.896l1.497 2.325 1.504-2.325zM23.187 20.285v4.779h-0.82v-4.779h0.82zM24.522 24.244h1.88v0.82h-2.701v-4.779h0.82v3.958zM27.6 24.244h1.88v0.82h-2.7v-4.779h0.82v3.958zM30.859 20.285v4.779h-0.82v-4.779h0.82zM33.793 20.996c-0.002 0-0.004 0-0.007 0-0.227 0-0.444 0.048-0.639 0.134l0.010-0.004c-0.21 0.088-0.39 0.211-0.54 0.362l-0 0c-0.153 0.151-0.277 0.33-0.365 0.529l-0.004 0.011c-0.078 0.186-0.123 0.401-0.123 0.628 0 0.003 0 0.006 0 0.008v-0c0 0.223 0.041 0.438 0.123 0.643 0.092 0.21 0.217 0.389 0.369 0.54l0 0c0.296 0.3 0.708 0.485 1.162 0.485 0.005 0 0.010-0 0.015-0h-0.001c0.002 0 0.005 0 0.008 0 0.226 0 0.442-0.045 0.639-0.127l-0.011 0.004c0.213-0.087 0.395-0.209 0.547-0.362l0-0c0.152-0.15 0.274-0.33 0.358-0.529l0.004-0.011c0.078-0.189 0.123-0.408 0.123-0.638 0-0.002 0-0.003 0-0.005v0c0-0.002 0-0.005 0-0.008 0-0.226-0.045-0.442-0.127-0.639l0.004 0.011c-0.088-0.21-0.21-0.39-0.362-0.54l-0-0c-0.152-0.153-0.334-0.276-0.536-0.359l-0.011-0.004c-0.185-0.082-0.401-0.13-0.629-0.13-0.002 0-0.005 0-0.007 0h0zM33.793 20.176c0.342 0 0.663 0.066 0.964 0.198 0.305 0.128 0.57 0.305 0.793 0.533 0.224 0.22 0.404 0.484 0.528 0.777l0.006 0.016c0.125 0.279 0.198 0.606 0.198 0.949 0 0.005-0 0.011-0 0.016v-0.001c0 0.342-0.066 0.666-0.198 0.971-0.132 0.308-0.312 0.571-0.533 0.793l-0 0c-0.223 0.223-0.488 0.401-0.793 0.533-0.301 0.128-0.622 0.191-0.964 0.191s-0.665-0.064-0.971-0.191c-0.307-0.135-0.57-0.315-0.794-0.534l0 0c-0.219-0.223-0.398-0.486-0.527-0.776l-0.007-0.017c-0.121-0.283-0.191-0.612-0.191-0.958 0-0.005 0-0.009 0-0.014v0.001c0-0.342 0.064-0.663 0.191-0.964 0.132-0.305 0.31-0.57 0.533-0.793 0.221-0.222 0.485-0.402 0.777-0.527l0.016-0.006c0.282-0.125 0.612-0.198 0.958-0.198 0.004 0 0.009 0 0.013 0h-0.001zM39.504 20.272h0.821v4.786h-0.889l-1.921-3.275v3.275h-0.821v-4.786h0.889l1.921 3.275v-3.275zM6.532 29.844v1.107h-0.31v-2.662h0.73c0.326 0 0.567 0.063 0.723 0.188 0.157 0.125 0.235 0.313 0.235 0.564 0 0.352-0.178 0.59-0.535 0.714l0.723 1.196h-0.366l-0.645-1.107h-0.555zM6.532 29.578h0.424c0.219 0 0.379-0.043 0.481-0.129 0.102-0.087 0.153-0.218 0.153-0.392 0-0.176-0.052-0.303-0.157-0.381-0.103-0.078-0.269-0.116-0.499-0.116h-0.402v1.018zM11.018 30.951h-1.484v-2.662h1.484v0.275h-1.174v0.858h1.103v0.273h-1.103v0.98h1.174v0.277zM14.29 30.951l-0.331-0.847h-1.067l-0.328 0.847h-0.313l1.052-2.673h0.26l1.047 2.673h-0.32zM13.862 29.825l-0.31-0.825c-0.038-0.095-0.080-0.223-0.116-0.353l-0.007-0.031c-0.027 0.116-0.065 0.244-0.115 0.384l-0.313 0.825h0.861zM15.983 30.951v-2.662h0.31v2.382h1.175v0.28h-1.484zM19.747 30.951h-0.31v-2.387h-0.843v-0.275h1.995v0.275h-0.843v2.387zM22.677 29.62l0.71-1.331h0.335l-0.889 1.63v1.032h-0.313v-1.018l-0.887-1.644h0.339l0.705 1.331zM27.072 30.951v-2.662h0.31v2.662h-0.31zM31.2 30.951h-0.353l-1.455-2.234h-0.015c0.019 0.262 0.029 0.503 0.029 0.721v1.513h-0.286v-2.662h0.349l1.451 2.225h0.014c-0.002-0.033-0.008-0.138-0.016-0.315-0.009-0.178-0.012-0.306-0.009-0.382v-1.528h0.289v2.662zM34.079 28.527c-0.293 0-0.524 0.098-0.694 0.293-0.169 0.194-0.253 0.461-0.253 0.799 0 0.348 0.081 0.618 0.244 0.808 0.164 0.189 0.397 0.284 0.699 0.284 0.186 0 0.398-0.033 0.635-0.1v0.271c-0.184 0.069-0.412 0.104-0.683 0.104-0.392 0-0.695-0.119-0.909-0.357-0.212-0.238-0.319-0.576-0.319-1.014 0-0.274 0.051-0.514 0.153-0.721 0.103-0.206 0.251-0.365 0.444-0.477 0.194-0.112 0.422-0.168 0.685-0.168 0.279 0 0.523 0.051 0.732 0.153l-0.131 0.266c-0.202-0.095-0.403-0.142-0.604-0.142z"></path>
<path fill="none" stroke="#fff" style="stroke: var(--color1, #fff)" stroke-linejoin="miter" stroke-linecap="butt" stroke-miterlimit="4" stroke-width="0.531" d="M14.869 9.559l0 6.351M23.138 15.91v-15.282l-3.573 2.977v12.305"></path>
<path fill="none" stroke="#fff" style="stroke: var(--color1, #fff)" stroke-linejoin="miter" stroke-linecap="butt" stroke-miterlimit="4" stroke-width="0.531" d="M20.558 15.91v-10.519h-3.771v10.519"></path>
<path fill="none" stroke="#fff" style="stroke: var(--color1, #fff)" stroke-linejoin="miter" stroke-linecap="butt" stroke-miterlimit="4" stroke-width="0.531" d="M21.947 14.866v-1.934h8.534v3.969h-20.442"></path>
<path fill="#59bc73" style="fill: var(--color2, #59bc73)" d="M24.924 14.057h3.969v1.588h-3.969z"></path>
</symbol>
    <symbol id="icon-mail" viewBox="0 0 37 32">
      <path fill="#59bc73" style="fill:var(--color2, #59bc73)" d="M0 3.692A3.692 3.692 0 0 1 3.692 0H33.23a3.692 3.692 0 0 1 3.692 3.692v2.974L18.46 17.049-.002 6.666V3.692z"/>
      <path fill="#59bc73" style="fill:var(--color2, #59bc73)" d="M0 9.489v18.818a3.692 3.692 0 0 0 3.692 3.692H33.23a3.692 3.692 0 0 0 3.692-3.692V9.489L18.46 19.874-.002 9.486z"/>
    </symbol>
    <symbol id="icon-tel" viewBox="0 0 32 32">
      <path fill="#59bc73" style="fill:var(--color2, #59bc73)" d="m25.801 20.154 4.984 4.984c.311.311.503.74.503 1.214s-.192.903-.503 1.214a10.269 10.269 0 0 1-7.282 3.016c-2.33 0-4.479-.774-6.205-2.078l.026.019-2.965-2.225a43.716 43.716 0 0 1-8.58-8.55l-.079-.109-2.225-2.965a10.225 10.225 0 0 1-2.06-6.179c0-2.844 1.153-5.418 3.016-7.282.311-.311.74-.503 1.214-.503s.903.192 1.214.503l4.984 4.984a1.88 1.88 0 0 1 0 2.662l-1.922 1.922a1.002 1.002 0 0 0-.186 1.165l-.003-.006c2.277 4.487 5.836 8.046 10.192 10.262l.131.061a1.005 1.005 0 0 0 1.159-.188l1.92-1.92c.341-.341.812-.552 1.332-.552s.991.211 1.332.552z"/>
    </symbol>
    <symbol id="icon-geo" viewBox="0 0 32 32">
      <path fill="#59bc73" style="fill:var(--color2, #59bc73)" d="M2.133 13.858C2.137 6.204 8.343 0 15.998 0H16c7.657 0 13.867 6.206 13.867 13.858 0 5.705-2.854 10.225-5.914 13.28a23.278 23.278 0 0 1-4.409 3.471l-.103.058c-.687.405-1.329.725-1.888.943-.527.209-1.079.371-1.553.371s-1.026-.162-1.553-.371a13.618 13.618 0 0 1-1.949-.977l.061.034a23.336 23.336 0 0 1-4.511-3.528l-.001-.001c-3.059-3.055-5.914-7.575-5.914-13.28zM16 8.527a5.333 5.333 0 1 0 5.333 5.333A5.333 5.333 0 0 0 16 8.527z"/>
    </symbol>
    <symbol id="icon-arrow" viewBox="0 0 49 32">
      <path fill="none" stroke="#59bc73" style="stroke:var(--color2, #59bc73)" stroke-linecap="round" stroke-width="4.923" d="M45.334 16 32.239 3.2M45.334 16 32.239 28.8M45.334 16H4.411"/>
    </symbol>
    <symbol id="icon-commercial" viewBox="0 0 32 32">
      <path d="M31 21.5a8.993 8.993 0 0 0-1.52-4.564l.02.032V2.81a1.509 1.509 0 0 0-2.179-1.338l.009-.004-11.278 5.637c-.33.168-.552.505-.552.894V12H11v-2a1 1 0 0 0-2 0v2H4a1.502 1.502 0 0 0-1.5 1.5V29H2a1 1 0 0 0 0 2h28a1 1 0 0 0 0-2h-2.5v-3.116A4.513 4.513 0 0 0 31 21.5zM26.5 24a2.503 2.503 0 0 1-2.5-2.5c0-1.67 1.42-4.5 2.5-4.5s2.5 2.83 2.5 4.5a2.503 2.503 0 0 1-2.5 2.5zm-22-10h11v15h-11V14zm13 15V8.618l10-5v11.578c-3.26-1.258-5.517 3.81-5.5 6.304a4.507 4.507 0 0 0 3.469 4.378l.031.006V29h-8z"/>
      <path d="M7.5 16a1 1 0 0 0-1 1v6a1 1 0 0 0 2 0v-6a1 1 0 0 0-1-1zm13-6.5a1 1 0 0 0-1 1V16a1 1 0 0 0 2 0v-5.5a1 1 0 0 0-1-1zM7.5 25a1 1 0 0 0 0 2 1 1 0 0 0 0-2z"/>
    </symbol>
    <symbol id="icon-residential" viewBox="0 0 32 32">
      <path d="m31.86 12.993-5-8.5A1 1 0 0 0 26 4h-1.5V1a1 1 0 0 0-1-1h-4a1 1 0 0 0-1 1v3h-13a.997.997 0 0 0-.88.527l-.003.005-4.5 8.5A1.007 1.007 0 0 0 1 14.5h2.501V30h-1a1 1 0 0 0 0 2h26.997a1 1 0 0 0 0-2h-1V14.5h2.5a1.007 1.007 0 0 0 .858-1.512l.003.005zM19.5 30h-7v-8.5h7V30zm6.999 0h-5v-9.5a1 1 0 0 0-1-1h-8.998a1 1 0 0 0-1 1V30h-5V14.5h3.586l-.793.793a1 1 0 0 0 1.414 1.414L16 10.414l6.293 6.293a1 1 0 0 0 1.413-1.414v.001l-.793-.793H26.5v15.5zm-5.585-17.5-4.207-4.207a.997.997 0 0 0-1.414 0L11.087 12.5H2.663L6.103 6H18.5v1a1 1 0 0 0 2 0V2h2v5a1 1 0 0 0 2 0V6h.927l3.823 6.5h-8.336z"/>
      <path d="M8.001 7.5a1 1 0 0 0 0 2 1 1 0 0 0 0-2z"/>
    </symbol>
    <symbol id="icon-price" viewBox="0 0 63 32">
      <path fill="#59bc73" style="fill:var(--color2, #59bc73)" d="M4.32 16.611a.53.53 0 0 0 0-1.058.53.53 0 0 0 0 1.058zM3.938 8.53a.529.529 0 0 0-.734.141l-.001.002a6.315 6.315 0 0 0-1.088 3.56c0 .781.141 1.529.398 2.22l-.014-.044a.531.531 0 1 0 .995-.366l.001.004a5.197 5.197 0 0 1-.317-1.806c0-1.104.337-2.129.913-2.978l-.012.019a.527.527 0 0 0-.139-.751l-.002-.001zm8.876-.639a.53.53 0 0 0-.746 0l-2.911 2.911a1.59 1.59 0 1 0-1.227 2.925l.011.003v1.68a.53.53 0 0 0 1.06 0v-1.68a1.59 1.59 0 0 0 .898-2.188l.004.009 2.912-2.912a.527.527 0 0 0 0-.75zm-4.343 4.874a.53.53 0 0 1 0-1.058.53.53 0 0 1 0 1.058z"/>
      <path fill="#59bc73" style="fill:var(--color2, #59bc73)" d="M8.471 3.765C3.794 3.766.003 7.558.003 12.236A8.47 8.47 0 0 0 12.7 19.579l-.041.022a.53.53 0 0 0-.532-.917l.003-.001a7.346 7.346 0 0 1-3.646.955 7.438 7.438 0 1 1 5.282-2.201l.001-.001a.53.53 0 1 0 .755.744 8.443 8.443 0 0 0 2.434-5.943 8.47 8.47 0 0 0-8.471-8.471h-.013.001z"/>
      <path fill="#59bc73" style="fill:var(--color2, #59bc73)" d="M9 6.941v-.53a.53.53 0 0 0-1.06 0v.53a.53.53 0 0 0 1.06 0zM8.471 17H8.47a.53.53 0 0 0-.529.529v.53a.53.53 0 0 0 1.06 0v-.53A.53.53 0 0 0 8.472 17h-.001zm5.823-4.235a.53.53 0 0 0 0-1.06h-.529a.53.53 0 0 0 0 1.06h.529zM30.224 10.998c2.008 0 3.48.382 4.417 1.144.951.75 1.426 1.78 1.426 3.092 0 .83-.201 1.579-.602 2.249-.388.656-.984 1.178-1.787 1.566-.789.375-1.767.562-2.931.562-.99 0-1.948-.147-2.871-.442-.924-.307-1.687-.73-2.289-1.265l.924-1.586c.482.455 1.098.823 1.847 1.104a6.864 6.864 0 0 0 2.335.402h.036-.002c1.058 0 1.874-.221 2.45-.663.589-.455.883-1.071.883-1.847 0-.843-.321-1.479-.964-1.907-.642-.442-1.74-.663-3.293-.663h-3.192l.743-7.349h7.931v1.747h-6.244l-.381 3.855h1.566zm19.742 5h-2.67v3.454h-1.948v-3.454h-7.81v-1.405l7.188-9.196h2.168l-6.887 8.875h5.401V11.22h1.887v3.052h2.67v1.727zm7.268-5.08c.924 0 1.747.174 2.47.522.736.348 1.311.85 1.727 1.506.415.643.622 1.385.622 2.229 0 .883-.221 1.66-.663 2.329-.429.669-1.024 1.192-1.787 1.566-.75.361-1.593.542-2.53.542-1.887 0-3.347-.609-4.377-1.827-1.018-1.218-1.526-2.945-1.526-5.18 0-1.566.274-2.898.823-3.996.562-1.111 1.338-1.948 2.329-2.51 1.004-.575 2.168-.863 3.494-.863.683 0 1.325.073 1.928.221.602.134 1.124.334 1.566.602l-.763 1.566c-.669-.442-1.566-.663-2.691-.663-1.459 0-2.604.455-3.433 1.365-.83.897-1.245 2.209-1.245 3.935 0 .214.006.382.02.502a3.759 3.759 0 0 1 1.646-1.365c.709-.321 1.506-.482 2.389-.482zm-.241 7.067c.924 0 1.673-.248 2.249-.743s.863-1.158.863-1.988-.295-1.486-.883-1.968c-.576-.496-1.352-.743-2.329-.743-.629 0-1.192.12-1.687.361a2.934 2.934 0 0 0-1.144.984 2.477 2.477 0 0 0-.402 1.36v.027-.001c0 .496.127.951.382 1.365.267.402.649.73 1.144.984.508.241 1.111.361 1.807.361z"/>
    </symbol>
    <symbol id="icon-sold" viewBox="0 0 73 32">
      <path fill="#59bc73" style="fill:var(--color2, #59bc73)" d="M8.206 10.647h1.588a.53.53 0 0 0 0-1.06H9a.53.53 0 0 0-1.06 0v.024a1.588 1.588 0 0 0 .264 3.153h.53a.53.53 0 0 1 0 1.058H7.145a.53.53 0 0 0 0 1.06h.794a.53.53 0 0 0 1.06 0v-.024a1.588 1.588 0 0 0-.264-3.153h-.53a.53.53 0 0 1 0-1.058z"/>
      <path fill="#59bc73" style="fill:var(--color2, #59bc73)" d="M8.471 6.941h-.058a5.294 5.294 0 1 0 0 10.588h.061-.003a5.295 5.295 0 0 0 .003-10.588h-.003zm0 9.53a4.235 4.235 0 1 1 0-8.47 4.235 4.235 0 1 1 0 8.47z"/>
      <path fill="#59bc73" style="fill:var(--color2, #59bc73)" d="M8.471 5.353a6.899 6.899 0 0 1 6.483 4.571l.015.048-.794.124 1.707 2.139.993-2.56-.85.132c-1.058-3.223-4.039-5.511-7.554-5.513h-.018a.53.53 0 0 0 0 1.06h.019-.001zm0 13.765a6.899 6.899 0 0 1-6.483-4.571l-.015-.048.808-.124-1.72-2.139-.993 2.56.85-.132c1.058 3.223 4.039 5.511 7.554 5.513a.53.53 0 0 0 0-1.058zM3.243 7.534h.019a.53.53 0 0 0 0-1.06h-.018.001a.53.53 0 0 0-.002 1.058h.001zm-2.115 3.643a.53.53 0 1 0 .224-1.036l-.003-.001a.53.53 0 0 0-.225 1.035l.004.001zm.592-2.02a.53.53 0 0 0 .256.066H2a.53.53 0 0 0 .252-.994l-.003-.001a.533.533 0 0 0-.792.469c0 .195.104.365.259.458l.002.001zm11.627 7.957a.53.53 0 1 0 .749.749.53.53 0 0 0-.75-.749zm1.895-1.777a.53.53 0 1 0-.257.994h.013-.001.008a.529.529 0 0 0 .457-.262l.001-.003a.53.53 0 0 0-.219-.726l-.003-.001zm.595-2.029a.534.534 0 0 0-.223 1.045l.004.001a.543.543 0 0 0 .114 0h.012a.529.529 0 0 0 .516-.412l.001-.004a.53.53 0 0 0-.42-.629l-.003-.001zM36.097 17.704v1.747H25.998v-1.365l5.722-5.522c.696-.669 1.165-1.245 1.406-1.727.241-.496.361-.991.361-1.486 0-.736-.261-1.305-.783-1.707-.508-.415-1.245-.622-2.209-.622-1.553 0-2.751.508-3.594 1.526l-1.365-1.185c.549-.67 1.265-1.192 2.148-1.566.897-.375 1.894-.562 2.992-.562 1.473 0 2.643.354 3.514 1.064.87.696 1.305 1.646 1.305 2.851v.019c0 .767-.178 1.493-.495 2.138l.013-.029c-.321.669-.931 1.432-1.827 2.289l-4.297 4.136h7.208zm5.667-6.706c2.008 0 3.48.382 4.417 1.144.951.75 1.426 1.78 1.426 3.092 0 .83-.201 1.579-.602 2.249-.388.656-.984 1.178-1.787 1.566-.79.375-1.767.562-2.931.562a9.372 9.372 0 0 1-2.871-.442c-.924-.307-1.687-.73-2.289-1.265l.924-1.586c.482.455 1.098.823 1.847 1.104.75.268 1.539.402 2.369.402 1.057 0 1.874-.221 2.45-.663.589-.455.883-1.071.883-1.847 0-.843-.321-1.479-.964-1.907-.642-.442-1.74-.663-3.293-.663h-3.192l.743-7.349h7.931v1.747h-6.244l-.382 3.855h1.566zm12.797.301c1.379.134 2.429.562 3.152 1.285.723.709 1.084 1.619 1.084 2.731 0 .803-.201 1.533-.602 2.189-.402.642-1.004 1.158-1.807 1.546-.79.375-1.761.562-2.911.562a9.44 9.44 0 0 1-2.891-.442c-.924-.307-1.68-.73-2.269-1.265l.924-1.586c.482.455 1.098.823 1.847 1.104a7.04 7.04 0 0 0 2.389.402c1.044 0 1.853-.221 2.429-.663.589-.442.883-1.051.883-1.827s-.288-1.379-.863-1.807c-.576-.429-1.446-.643-2.61-.643h-1.124V11.48l3.534-4.337H48.96V5.396h9.276v1.365l-3.674 4.538zm14.702.783c.803.307 1.419.75 1.847 1.325s.642 1.265.642 2.068c0 .843-.227 1.579-.683 2.209-.455.616-1.104 1.091-1.948 1.426s-1.833.502-2.972.502c-1.124 0-2.108-.168-2.952-.502-.83-.334-1.472-.809-1.928-1.426-.455-.629-.683-1.365-.683-2.209 0-.803.207-1.493.622-2.068.429-.575 1.044-1.017 1.847-1.325-.642-.307-1.131-.716-1.466-1.225s-.502-1.111-.502-1.807c0-.776.207-1.453.622-2.028.429-.575 1.024-1.017 1.787-1.325s1.646-.462 2.65-.462c1.018 0 1.907.154 2.67.462.777.307 1.372.75 1.787 1.325.429.575.642 1.252.642 2.028 0 .683-.174 1.285-.522 1.807-.334.508-.823.917-1.466 1.225zm-3.112-5.22c-.95 0-1.7.207-2.249.622-.548.402-.823.951-.823 1.646s.268 1.245.803 1.646c.549.402 1.305.602 2.269.602.978 0 1.741-.201 2.289-.602.562-.402.843-.951.843-1.646s-.287-1.245-.863-1.646c-.562-.415-1.318-.622-2.269-.622zm0 11.123c1.111 0 1.988-.228 2.63-.683.642-.469.964-1.098.964-1.887 0-.776-.321-1.385-.964-1.827-.642-.455-1.519-.683-2.63-.683s-1.981.228-2.61.683c-.629.442-.944 1.051-.944 1.827 0 .79.315 1.419.944 1.887.629.455 1.5.683 2.61.683z"/>
    </symbol>
    <symbol id="icon-house" viewBox="0 0 46 32">
      <path fill="#59bc73" style="fill:var(--color2, #59bc73)" d="M13.83 13.71a.229.229 0 0 1-.228-.229V12.8c0-.126.103-.229.229-.229s.229.103.229.229v.68a.23.23 0 0 1-.229.229h-.001zm0-2.283a.229.229 0 0 1-.228-.229v-.666c0-.126.103-.229.229-.229s.229.103.229.229v.666a.23.23 0 0 1-.229.229h-.001zM0 19.184a.53.53 0 0 1 .53-.53h6.253a.53.53 0 0 1 0 1.06H.529a.53.53 0 0 1-.53-.53zm12.772 0a.53.53 0 0 1 .53-.53h3.11a.53.53 0 0 1 0 1.06h-3.11a.53.53 0 0 1-.53-.53z"/>
      <path fill="#59bc73" style="fill:var(--color2, #59bc73)" d="M12.469 5.328h.003a.598.598 0 0 1 .533.592v12.781l-4.949.927a.596.596 0 0 1-.709-.585V5.464a.596.596 0 0 1 .656-.593l4.467.457zm-4.36-1.509a1.655 1.655 0 0 0-1.823 1.645v13.579c0 1.035.941 1.817 1.959 1.626l5.007-.937a.993.993 0 0 0 .809-.976V5.92c0-.854-.648-1.558-1.479-1.645l-.007-.001-4.467-.456z"/>
      <path fill="#59bc73" style="fill:var(--color2, #59bc73)" d="M8.934 13.459a.529.529 0 0 0-1.058-.001v.549a.53.53 0 0 0 1.06 0v-.019.001-.53zM2.382 7.636a2.515 2.515 0 0 1 2.515-2.515h1.919V6.18H4.897c-.804 0-1.456.652-1.456 1.456V10.3a.53.53 0 0 1-1.06 0V7.636zm.53 4.5a.53.53 0 0 1 .529.53v6.022H2.383v-6.022a.53.53 0 0 1 .53-.529zM30.674 5.396v14.055h-1.988V7.143h-3.172V5.396h5.16zm8.816 14.216c-1.111 0-2.102-.281-2.972-.843-.856-.575-1.533-1.405-2.028-2.49s-.743-2.369-.743-3.855.248-2.771.743-3.855c.496-1.084 1.171-1.907 2.028-2.47.87-.575 1.86-.863 2.972-.863 1.098 0 2.075.288 2.931.863.87.562 1.553 1.385 2.048 2.47s.743 2.369.743 3.855-.248 2.771-.743 3.855c-.496 1.084-1.178 1.914-2.048 2.49-.856.562-1.834.843-2.931.843zm0-1.787c1.124 0 2.021-.462 2.691-1.385.683-.924 1.024-2.262 1.024-4.016s-.341-3.092-1.024-4.016c-.669-.924-1.566-1.385-2.691-1.385-1.138 0-2.048.462-2.731 1.385-.669.924-1.004 2.262-1.004 4.016s.334 3.092 1.004 4.016c.683.924 1.593 1.385 2.731 1.385z"/>
    </symbol>
    <symbol id="icon-home" viewBox="0 0 77 32">
      <path fill="#59bc73" style="fill:var(--color2, #59bc73)" d="m16.75 10.24-2.721-2.266V6.129a.53.53 0 0 0-1.06 0v.019-.001.942L9.485 4.188a1.584 1.584 0 0 0-2.035.002l.003-.002L.19 10.24a.53.53 0 1 0 .679.815l-.001.001 7.263-6.055a.53.53 0 0 1 .679 0L8.809 5l6.014 5.011v9.107a.53.53 0 0 1-.53.529h-2.647V13.823c0-.877-.711-1.588-1.588-1.588H6.881c-.877 0-1.588.711-1.588 1.588v5.824H2.645a.53.53 0 0 1-.529-.529v-6.354a.53.53 0 0 0-1.06 0v6.353c0 .877.711 1.588 1.588 1.588H14.291c.877 0 1.588-.711 1.588-1.588v-8.222l.19.159a.526.526 0 0 0 .645.024l-.002.001a.53.53 0 0 0 .035-.84l-.001-.001zM6.353 19.646V13.822a.53.53 0 0 1 .53-.53h3.176a.53.53 0 0 1 .53.53v5.824H6.354z"/>
      <path fill="#59bc73" style="fill:var(--color2, #59bc73)" d="M7.941 17a.53.53 0 0 0 0-1.06.53.53 0 0 0 0 1.06zM38.486 15.998h-2.671v3.454h-1.947v-3.454h-7.811v-1.405l7.187-9.196h2.168l-6.886 8.875h5.4V11.22h1.887v3.052h2.671v1.727zm5.16-5c2.008 0 3.48.382 4.417 1.144.951.75 1.426 1.78 1.426 3.092 0 .83-.201 1.579-.602 2.249-.388.656-.984 1.178-1.787 1.566-.79.375-1.767.562-2.931.562a9.372 9.372 0 0 1-2.871-.442c-.924-.307-1.687-.73-2.289-1.265l.924-1.586c.482.455 1.098.823 1.847 1.104.75.268 1.539.402 2.369.402 1.057 0 1.874-.221 2.45-.663.589-.455.883-1.071.883-1.847 0-.843-.321-1.479-.964-1.907-.642-.442-1.74-.663-3.293-.663h-3.192l.743-7.349h7.931v1.747h-6.244l-.382 3.855h1.566zm13.256 8.614c-1.111 0-2.102-.281-2.972-.843-.856-.575-1.533-1.405-2.028-2.49s-.743-2.369-.743-3.855.248-2.771.743-3.855c.496-1.084 1.171-1.907 2.028-2.47.87-.575 1.86-.863 2.972-.863 1.098 0 2.075.288 2.931.863.87.562 1.553 1.385 2.048 2.47s.743 2.369.743 3.855-.248 2.771-.743 3.855c-.496 1.084-1.178 1.914-2.048 2.49-.856.562-1.834.843-2.931.843zm0-1.787c1.124 0 2.021-.462 2.691-1.385.683-.924 1.024-2.262 1.024-4.016s-.341-3.092-1.024-4.016c-.669-.924-1.566-1.385-2.691-1.385-1.138 0-2.048.462-2.731 1.385-.669.924-1.004 2.262-1.004 4.016s.334 3.092 1.004 4.016c.683.924 1.593 1.385 2.731 1.385zm13.393 1.787c-1.111 0-2.102-.281-2.972-.843-.857-.575-1.533-1.405-2.028-2.49s-.743-2.369-.743-3.855.247-2.771.743-3.855c.495-1.084 1.171-1.907 2.028-2.47.87-.575 1.86-.863 2.972-.863 1.097 0 2.074.288 2.931.863.87.562 1.552 1.385 2.048 2.47s.743 2.369.743 3.855-.248 2.771-.743 3.855c-.496 1.084-1.178 1.914-2.048 2.49-.857.562-1.834.843-2.931.843zm0-1.787c1.124 0 2.021-.462 2.691-1.385.683-.924 1.024-2.262 1.024-4.016s-.341-3.092-1.024-4.016c-.669-.924-1.566-1.385-2.691-1.385-1.138 0-2.048.462-2.731 1.385-.669.924-1.004 2.262-1.004 4.016s.334 3.092 1.004 4.016c.683.924 1.592 1.385 2.731 1.385z"/>
    </symbol>
    <symbol id="icon-phone" viewBox="0 0 32 32">
      <path fill="none" stroke="#59bc73" style="stroke:var(--color2, #59bc73)" stroke-width="2.021" d="m24.77 19.717 4.46 4.46a1.531 1.531 0 0 1 0 2.172 9.186 9.186 0 0 1-6.515 2.698 9.17 9.17 0 0 1-5.552-1.86l.023.017-2.653-1.991a39.078 39.078 0 0 1-7.677-7.65l-.071-.097-1.991-2.653a9.147 9.147 0 0 1-1.843-5.529 9.186 9.186 0 0 1 2.698-6.515 1.531 1.531 0 0 1 2.172 0l4.46 4.46c.305.305.493.726.493 1.191s-.188.886-.493 1.191l-1.72 1.72a.893.893 0 0 0-.167 1.042l-.002-.005c2.037 4.015 5.221 7.199 9.119 9.182l.117.054a.893.893 0 0 0 1.037-.169l1.718-1.718c.305-.305.726-.494 1.192-.494s.887.189 1.192.494z"/>
    </symbol>
    <symbol id="icon-logo" viewBox="0 0 100 32">
      <path fill="#232a31" style="fill: var(--color3, #232a31)" d="M35.020 10.425h1.594v8.519h-1.46v-6.036l-2.811 4.344-2.799-4.344v6.036h-1.46v-8.519h1.594l2.665 4.137 2.677-4.137zM42.619 10.437l3.846 8.519h-1.606l-0.657-1.46-0.657-1.461-1.728-3.821-1.728 3.821h2.215l0.657 1.461h-3.529l-0.657 1.46h-1.607l3.846-8.519h1.606zM55.009 10.437l-3.237 4.259 3.237 4.26h-1.825l-2.324-3.055-2.324 3.054h-1.825l3.237-4.259-3.237-4.259h1.825l2.324 3.054 2.324-3.054h1.825zM57.080 10.449v8.506h-1.46v-8.506h1.46zM64.932 10.425h1.594v8.519h-1.46v-6.036l-2.811 4.344-2.799-4.344v6.036h-1.46v-8.519h1.594l2.665 4.137 2.677-4.137zM68.905 10.449v8.506h-1.461v-8.506h1.461zM71.28 17.496h3.347v1.46h-4.807v-8.506h1.46v7.046zM76.759 17.496h3.347v1.46h-4.807v-8.506h1.46v7.046zM82.56 10.449v8.506h-1.46v-8.506h1.46zM87.783 11.715c-0.004-0-0.009-0-0.014-0-0.404 0-0.788 0.085-1.136 0.238l0.018-0.007c-0.375 0.157-0.694 0.375-0.961 0.645l-0 0c-0.271 0.269-0.493 0.588-0.65 0.942l-0.008 0.020c-0.138 0.331-0.219 0.715-0.219 1.118 0 0.005 0 0.010 0 0.015v-0.001c0 0.398 0.073 0.779 0.219 1.144 0.165 0.374 0.386 0.693 0.657 0.962l0 0c0.527 0.534 1.258 0.864 2.067 0.864 0.009 0 0.019-0 0.028-0h-0.001c0.004 0 0.009 0 0.014 0 0.403 0 0.787-0.081 1.138-0.227l-0.020 0.007c0.379-0.154 0.703-0.373 0.973-0.645l0-0c0.271-0.267 0.489-0.587 0.638-0.942l0.007-0.019c0.146-0.365 0.219-0.746 0.219-1.144s-0.073-0.775-0.219-1.132c-0.156-0.375-0.375-0.694-0.645-0.961l-0-0c-0.27-0.272-0.594-0.49-0.954-0.638l-0.019-0.007c-0.33-0.146-0.715-0.232-1.12-0.232-0.004 0-0.008 0-0.012 0h0.001zM87.783 10.255c0.608 0 1.18 0.118 1.716 0.353 0.55 0.23 1.020 0.551 1.411 0.949l0.001 0.001c0.398 0.392 0.719 0.861 0.939 1.384l0.010 0.028c0.235 0.536 0.353 1.107 0.353 1.716s-0.118 1.184-0.353 1.728c-0.234 0.549-0.555 1.017-0.949 1.412l-0 0c-0.395 0.393-0.864 0.713-1.383 0.938l-0.029 0.011c-0.498 0.215-1.078 0.341-1.687 0.341-0.010 0-0.020-0-0.030-0h0.002c-0.007 0-0.015 0-0.023 0-0.615 0-1.201-0.125-1.734-0.352l0.029 0.011c-0.547-0.241-1.014-0.56-1.413-0.95l0.001 0.001c-0.389-0.398-0.708-0.865-0.937-1.382l-0.012-0.030c-0.215-0.504-0.341-1.089-0.341-1.705 0-0.008 0-0.017 0-0.025v0.001c0-0.608 0.113-1.18 0.341-1.716 0.236-0.548 0.556-1.016 0.949-1.412l-0 0c0.394-0.395 0.863-0.715 1.383-0.938l0.029-0.011c0.503-0.223 1.090-0.353 1.707-0.353 0.007 0 0.015 0 0.022 0h-0.001zM97.948 10.425h1.46v8.519h-1.582l-3.419-5.829v5.829h-1.46v-8.519h1.582l3.42 5.829v-5.829zM42.765 27.865v2.096h-0.586v-5.039h1.382c0.618 0 1.074 0.118 1.368 0.355 0.296 0.237 0.445 0.593 0.445 1.068 0 0.667-0.338 1.117-1.013 1.352l1.368 2.264h-0.693l-1.22-2.096h-1.051zM42.765 27.362h0.803c0.414 0 0.717-0.081 0.91-0.245 0.193-0.165 0.289-0.412 0.289-0.741 0-0.333-0.099-0.573-0.296-0.72-0.195-0.147-0.51-0.221-0.944-0.221h-0.761v1.927zM51.54 29.961h-2.809v-5.039h2.809v0.52h-2.223v1.624h2.088v0.517h-2.088v1.854h2.223v0.524zM58.016 29.961l-0.627-1.603h-2.020l-0.62 1.603h-0.593l1.992-5.060h0.493l1.982 5.060h-0.607zM57.206 27.831l-0.586-1.561c-0.076-0.198-0.154-0.44-0.234-0.727-0.050 0.221-0.123 0.463-0.217 0.727l-0.593 1.561h1.63zM61.504 29.961v-5.039h0.586v4.508h2.223v0.531h-2.809zM68.91 29.961h-0.586v-4.519h-1.596v-0.52h3.778v0.52h-1.596v4.519zM74.738 27.441l1.344-2.52h0.634l-1.682 3.085v1.954h-0.593v-1.927l-1.679-3.112h0.641l1.334 2.52zM83.623 29.961v-5.039h0.586v5.039h-0.586zM91.719 29.961h-0.669l-2.754-4.229h-0.028c0.033 0.405 0.053 0.881 0.055 1.361v2.868h-0.541v-5.039h0.662l2.747 4.212h0.028c-0.005-0.062-0.015-0.261-0.031-0.596-0.011-0.183-0.018-0.397-0.018-0.613 0-0.039 0-0.078 0.001-0.117l-0 0.006v-2.892h0.548v5.039zM97.45 25.373c-0.554 0-0.992 0.185-1.313 0.555-0.319 0.367-0.479 0.872-0.479 1.513 0 0.659 0.154 1.169 0.462 1.53 0.31 0.358 0.751 0.537 1.323 0.537 0.352 0 0.752-0.063 1.203-0.19v0.514c-0.349 0.131-0.78 0.196-1.292 0.196-0.742 0-1.316-0.225-1.72-0.675-0.402-0.45-0.603-1.090-0.603-1.92 0-0.52 0.096-0.974 0.29-1.365 0.188-0.382 0.477-0.691 0.831-0.898l0.010-0.005c0.368-0.211 0.8-0.317 1.296-0.317 0.528 0 0.99 0.096 1.385 0.289l-0.248 0.504c-0.382-0.179-0.763-0.269-1.144-0.269z"></path>
      <path fill="none" stroke="#232a31" style="stroke: var(--color3, #232a31)" stroke-linejoin="miter" stroke-linecap="butt" stroke-miterlimit="4" stroke-width="0.9449" d="M8.598 17.309v11.305M23.316 28.614v-27.202l-6.359 5.299v21.904"></path>
      <path fill="none" stroke="#232a31" style="stroke: var(--color3, #232a31)" stroke-linejoin="miter" stroke-linecap="butt" stroke-miterlimit="4" stroke-width="0.9449" d="M18.724 28.614v-18.724h-6.712v18.724"></path>
      <path fill="none" stroke="#232a31" style="stroke: var(--color3, #232a31)" stroke-linejoin="miter" stroke-linecap="butt" stroke-miterlimit="4" stroke-width="0.9449" d="M21.197 26.757v-3.442h15.191v7.065h-36.387"></path>
      <path fill="#59bc73" style="fill: var(--color2, #59bc73)" d="M26.496 25.317h7.065v2.826h-7.065z"></path>
    </symbol>
    <symbol id="icon-menu" viewBox="0 0 36 32">
      <path stroke-linecap="round" stroke-width="3.2" d="M33.28 5.12H2.56m30.72 21.76H2.56M33.28 16H8.506"/>
    </symbol>
    <symbol id="icon-facebook" viewBox="0 0 32 32">
      <path stroke-width="1.477" d="M3.692.738h24.615a2.954 2.954 0 0 1 2.954 2.954v24.615a2.954 2.954 0 0 1-2.954 2.954H3.692a2.954 2.954 0 0 1-2.954-2.954V3.692A2.954 2.954 0 0 1 3.692.738z"/>
      <path stroke-linecap="round" stroke-width="1.477" d="M21.894 8.421c-6.737-.842-5.895 6.737-5.895 8.421v13.473m-5.051-11.788h10.105"/>
    </symbol>
    <symbol id="icon-logosecond" viewBox="0 0 63 32">
      <path fill="#fff" style="fill: var(--color1, #fff)" d="M41.703 13.044h17.355c-0.081-0.305-0.547-1.361-2.859-0.955 0.385-0.345 0.629-0.853 0.527-1.341-0.041-0.142-0.101-0.284-0.203-0.406-0.101-0.102-0.223-0.162-0.345-0.203-0.912-0.325-2.514 0.935-2.514 0.935 1.967-3.088-3.386-4.388-3.426-0.467 0 0-0.791-1.402-1.642-1.016-0.345 0.203-0.142 0.792 0.020 1.056-2.514-1.219-4.785-0.467-3.73 0.914-2.473 0.041-3.183 1.483-3.183 1.483zM20.606 7.059h10.502c-0.041-0.183-0.325-0.813-1.723-0.569 0.223-0.203 0.385-0.508 0.325-0.813-0.020-0.081-0.061-0.183-0.122-0.244s-0.142-0.102-0.203-0.122c-0.547-0.203-1.52 0.569-1.52 0.569 1.196-1.869-2.048-2.662-2.068-0.284 0 0-0.466-0.853-0.993-0.61-0.203 0.122-0.081 0.488 0.020 0.65-1.52-0.731-2.899-0.284-2.25 0.549-1.541 0.020-1.967 0.874-1.967 0.874z"></path>
      <path fill="#f9aa41" style="fill: var(--color2, #f9aa41)" d="M40.15 3.254c0.744-0.746 0.744-1.955 0-2.701s-1.951-0.746-2.695 0c-0.744 0.746-0.744 1.955 0 2.701s1.951 0.746 2.695 0z"></path>
      <path fill="#fff" style="fill: var(--color1, #fff)" d="M15.834 8.919h-3.001v5.587h3.001v-5.587z"></path>
      <path fill="#9bb8cc" style="fill: var(--color3, #9bb8cc)" d="M12.833 10.321v0.549l3.001-0.345v-0.203h-3.001z"></path>
      <path fill="#133b53" style="fill: var(--color4, #133b53)" d="M16.179 9.651h-3.71v0.67h3.71v-0.67z"></path>
      <path fill="#479da3" style="fill: var(--color5, #479da3)" d="M52.428 31.898h9.995c-0.142-0.447-0.507-0.813-0.912-0.975-0.446-0.183-0.933-0.142-1.399-0.020 0.081-0.020 0.203-0.183 0.264-0.244 0.142-0.163 0.264-0.325 0.284-0.528 0.041-0.244-0.041-0.488-0.182-0.67-0.243-0.305-0.669-0.427-1.054-0.386h-0.061c-0.081 0.020-0.142 0.020-0.223 0.061-0.304 0.122-0.588 0.325-0.811 0.569-0.041 0.041-0.081 0.081-0.122 0.142 0 0 0.649-0.549 0.811-0.955 0.568-1.178-0.629-2.865-2.108-2.377-0.588 0.244-1.075 0.772-1.399 1.382 1.196-1.788-0.791-2.865-1.48-1.26 0.426-1.321-0.203-2.702-1.52-1.93-0.020 0-0.041 0.020-0.061 0.020v7.172h-0.020z"></path>
      <path fill="#7bbfba" style="fill: var(--color6, #7bbfba)" d="M52.428 31.898h5.9c-0.081-0.264-0.304-0.488-0.547-0.569-0.264-0.102-0.547-0.081-0.831 0 0.142-0.264-0.041-0.63-0.304-0.732s-0.568-0.020-0.811 0.122c0.223-0.102 0.385-0.325 0.466-0.569 0.325-0.691-0.365-1.686-1.237-1.402-0.345 0.142-0.629 0.447-0.831 0.813 0.71-1.056-0.466-1.686-0.872-0.752 0.405-1.036-0.365-1.646-0.933-1.402v4.49z"></path>
      <path fill="#479da3" style="fill: var(--color5, #479da3)" d="M58.531 26.25c-0.162 0.142-0.385 0.122-0.385 0.122s0.020-0.244 0.182-0.386c0.162-0.142 0.385-0.122 0.385-0.122s-0.020 0.244-0.182 0.386z"></path>
      <path fill="#7bbfba" style="fill: var(--color6, #7bbfba)" d="M53.989 27.916c-0.122 0.203-0.365 0.285-0.365 0.285s-0.061-0.285 0.061-0.488c0.122-0.203 0.365-0.285 0.365-0.285s0.061 0.264-0.061 0.488z"></path>
      <path fill="#479da3" style="fill: var(--color5, #479da3)" d="M58.065 25.702c0.061 0.305-0.081 0.61-0.081 0.61s-0.264-0.183-0.324-0.488c-0.061-0.305 0.081-0.609 0.081-0.609s0.243 0.183 0.324 0.488z"></path>
      <path fill="#994f61" style="fill: var(--color7, #994f61)" d="M4.744 31.878l0.142-2.235-1.237-1.422 0.081-0.061 0.73 0.61 0.101-0.61 0.122 0.020-0.020 0.772 0.304 0.305 0.101-2.296-0.608-0.752 0.081-0.041 0.628 0.488 0.041-1.178h0.162l0.101 1.463 0.162 1.463 0.811-0.894 0.081 0.041-0.304 0.467h0.527v0.081l-0.568 0.102-0.568 0.874 0.122 2.804h-0.993z"></path>
      <path fill="#479da3" style="fill: var(--color5, #479da3)" d="M9.995 23.792c0-0.284-0.020-0.569-0.122-0.813-0.122-0.244-0.345-0.467-0.629-0.508-0.162-0.020-0.345 0.020-0.426 0.142 0.304-0.386 0.588-0.813 0.71-1.3s0.061-1.036-0.264-1.402c-0.304-0.366-0.811-0.528-1.298-0.447-0.466 0.061-0.892 0.345-1.216 0.711 0.041-0.752 0.203-1.503 0.061-2.235s-0.71-1.463-1.46-1.443c-0.507 0.020-0.933 0.386-1.257 0.772-0.669 0.813-1.075 1.829-1.156 2.885-0.203-0.264-0.385-0.528-0.649-0.731s-0.588-0.345-0.912-0.285c-0.527 0.081-0.872 0.63-1.014 1.158-0.142 0.569-0.122 1.158 0.061 1.707 0.284 0.914 0.973 1.646 1.642 2.316-0.304-0.142-0.689 0.041-0.831 0.345-0.203 0.406 0 0.874 0.264 1.199 0.243 0.264 0.547 0.467 0.872 0.63 1.784 0.894 3.974 0.772 5.778-0.020 0.669-0.285 1.135-0.772 1.5-1.422 0.243-0.366 0.345-0.813 0.345-1.26zM4.237 27.591c-0.081-0.102-0.324-0.142-0.324 0.041-0.081-0.549-0.791-0.345-0.446 0.183-0.547-0.569-1.034 0.163-0.324 0.488-0.608 0.020-0.264 0.874 0.264 0.508-0.223 0.122-0.081 0.406 0.162 0.386 0.608-0.122 1.237-1.097 0.669-1.605z"></path>
      <path fill="#7bbfba" style="fill: var(--color6, #7bbfba)" d="M3.163 25.966c-0.041-0.142-0.081-0.305-0.061-0.447 0.020-0.163 0.101-0.305 0.243-0.366 0.038-0.019 0.084-0.031 0.132-0.031s0.093 0.011 0.134 0.031l-0.002-0.001c-0.223-0.163-0.446-0.345-0.588-0.569-0.142-0.244-0.203-0.528-0.081-0.792 0.101-0.244 0.345-0.406 0.608-0.447s0.527 0.041 0.75 0.183c-0.142-0.386-0.345-0.772-0.385-1.178s0.142-0.894 0.547-0.995c0.264-0.061 0.547 0.061 0.791 0.203 0.487 0.325 0.872 0.792 1.075 1.341 0.061-0.183 0.122-0.345 0.223-0.508 0.101-0.142 0.263-0.264 0.446-0.305 0.304-0.041 0.568 0.203 0.71 0.447 0.152 0.263 0.242 0.578 0.243 0.914v0c0 0.528-0.264 1.016-0.507 1.503 0.142-0.122 0.365-0.081 0.507 0.041 0.162 0.183 0.142 0.467 0.040 0.67-0.081 0.183-0.223 0.345-0.365 0.467-0.811 0.772-1.987 1.057-3.082 0.914-0.405-0.041-0.73-0.224-1.014-0.508-0.162-0.122-0.284-0.325-0.365-0.569z"></path>
      <path fill="#479da3" style="fill: var(--color5, #479da3)" d="M1.135 24.096c0.101 0.183 0.040 0.427 0.040 0.427s-0.223-0.081-0.324-0.264c-0.101-0.183-0.041-0.427-0.041-0.427s0.223 0.081 0.325 0.264zM0.507 24.503c0.284-0.020 0.547 0.203 0.547 0.203s-0.223 0.244-0.507 0.264c-0.284 0.020-0.547-0.203-0.547-0.203s0.223-0.264 0.507-0.264zM6.934 28.282c-0.101-0.041-0.162-0.163-0.162-0.163s0.122-0.041 0.223 0c0.101 0.041 0.162 0.163 0.162 0.163s-0.122 0.041-0.223 0zM7.055 27.916c-0.122 0.102-0.284 0.102-0.284 0.102s0.020-0.183 0.122-0.285c0.122-0.102 0.284-0.102 0.284-0.102s0 0.183-0.122 0.285z"></path>
      <path fill="#7bbfba" style="fill: var(--color6, #7bbfba)" d="M6.913 21.76c-0.142 0.163-0.385 0.163-0.385 0.163s0-0.244 0.142-0.386c0.142-0.163 0.385-0.163 0.385-0.163s0 0.244-0.142 0.386zM3.305 22.979c0.142 0.061 0.203 0.203 0.203 0.203s-0.162 0.061-0.284 0.020c-0.142-0.061-0.203-0.203-0.203-0.203s0.142-0.061 0.284-0.020zM6.346 21.293c0.101 0.285-0.020 0.569-0.020 0.569s-0.304-0.142-0.405-0.427c-0.101-0.284 0.020-0.569 0.020-0.569s0.304 0.142 0.405 0.427zM3.893 28.851h-0.162c-0.081 0-0.142-0.041-0.203-0.102-0.041-0.041-0.061-0.122-0.041-0.183 0.041-0.081 0.142-0.061 0.203-0.142 0.020-0.041 0.020-0.081 0.020-0.142 0-0.041-0.020-0.102 0-0.142s0.061-0.081 0.101-0.081c0.041 0 0.061 0.041 0.081 0.061s0.041 0.020 0.061 0.020c0.081 0 0.101-0.122 0.203-0.122 0.101 0.020 0.142 0.122 0.183 0.203 0.040 0.142 0.020 0.305-0.081 0.427-0.101 0.142-0.243 0.183-0.365 0.203z"></path>
      <path fill="#133b53" style="fill: var(--color4, #133b53)" d="M42.089 7.131l-21.288-0.366-12.347 11.886h45.576l-11.941-11.52z"></path>
      <path fill="#fff" style="fill: var(--color1, #fff)" d="M52.976 18.651h-13.827v12.394h13.827v-12.394z"></path>
      <path fill="#f43d4f" style="fill: var(--color8, #f43d4f)" d="M52.976 18.651h-1.521v12.394h1.521v-12.394zM40.669 18.651h-1.52v12.394h1.52v-12.394z"></path>
      <path fill="#e1ecef" style="fill: var(--color9, #e1ecef)" d="M51.455 20.46h-10.806v0.163h10.806v-0.163zM51.455 22.207h-10.806v0.162h10.806v-0.162zM51.455 23.954h-10.806v0.163h10.806v-0.163zM51.455 25.702h-10.806v0.163h10.806v-0.163zM51.455 27.449h-10.806v0.163h10.806v-0.163zM51.455 29.176h-10.806v0.163h10.806v-0.163z"></path>
      <path fill="#b72e41" style="fill: var(--color10, #b72e41)" d="M40.669 20.46h-1.52v0.163h1.52v-0.163zM40.669 22.207h-1.52v0.162h1.52v-0.162zM40.669 23.954h-1.52v0.163h1.52v-0.163zM40.669 25.702h-1.52v0.163h1.52v-0.163zM40.669 27.449h-1.52v0.163h1.52v-0.163zM40.669 29.176h-1.52v0.163h1.52v-0.163zM52.976 20.46h-1.521v0.163h1.521v-0.163zM52.976 22.207h-1.521v0.162h1.521v-0.162zM52.976 23.954h-1.521v0.163h1.521v-0.163zM52.976 25.702h-1.521v0.163h1.521v-0.163zM52.976 27.449h-1.521v0.163h1.521v-0.163zM52.976 29.176h-1.521v0.163h1.521v-0.163z"></path>
      <path fill="#fff" style="fill: var(--color1, #fff)" d="M23.335 18.651h-13.827v12.394h13.827v-12.394z"></path>
      <path fill="#e1ecef" style="fill: var(--color9, #e1ecef)" d="M23.214 20.46h-13.705v0.163h13.705v-0.163zM23.214 22.207h-13.705v0.162h13.705v-0.162zM23.214 23.954h-13.705v0.163h13.705v-0.163zM23.214 25.702h-13.705v0.163h13.705v-0.163zM23.214 27.449h-13.705v0.163h13.705v-0.163zM23.214 29.176h-13.705v0.163h13.705v-0.163z"></path>
      <path fill="#f43d4f" style="fill: var(--color8, #f43d4f)" d="M20.983 21.212h-9.103v9.854h9.103v-9.854z"></path>
      <path fill="#b72e41" style="fill: var(--color10, #b72e41)" d="M20.983 21.638l-9.103 1.483v-1.91h9.103v0.427z"></path>
      <path fill="#9bb8cc" style="fill: var(--color3, #9bb8cc)" d="M23.355 31.065h-0.608l0.365-12.414h0.243v12.414z"></path>
      <path fill="#9bb8cc" style="fill: var(--color3, #9bb8cc)" d="M23.355 18.855l-13.847 0.772v-0.975h13.847v0.203zM40.649 18.651v0.894l10.806-0.61v-0.284h-10.806z"></path>
      <path fill="#b72e41" style="fill: var(--color10, #b72e41)" d="M51.455 18.651v0.284l1.521-0.081v-0.203h-1.521zM39.149 18.651v0.975l1.5-0.081v-0.894h-1.5z"></path>
      <path fill="#fff" style="fill: var(--color1, #fff)" d="M39.149 31.065h-15.793v-19.281l7.887-6.177 7.907 6.176v19.281z"></path>
      <path fill="#9bb8cc" style="fill: var(--color3, #9bb8cc)" d="M31.242 5.608l-7.887 6.177v1.402l7.522-5.851 8.272 6.481v-2.032l-7.907-6.176z"></path>
      <path fill="#fff" style="fill: var(--color1, #fff)" d="M40.406 11.947l-9.164-6.888-9.143 6.949 0.892 0.894 8.251-6.441 8.231 6.42 0.933-0.935z"></path>
      <path fill="#7bbfba" style="fill: var(--color6, #7bbfba)" d="M53.422 31.065h-44.805v0.853h44.805v-0.853z"></path>
      <path fill="#fff" style="fill: var(--color1, #fff)" d="M19.483 23.345h-6.082v7.721h6.082v-7.721z"></path>
      <path fill="#133b53" style="fill: var(--color4, #133b53)" d="M16.219 23.69h-2.372v6.928h2.372v-6.928zM19.017 23.69h-2.372v6.928h2.372v-6.928z"></path>
      <path fill="#b72e41" style="fill: var(--color10, #b72e41)" d="M19.483 23.223h-6.204l-0.081 7.843h0.203v-7.721h6.082v-0.122z"></path>
      <path fill="#fff" style="fill: var(--color1, #fff)" d="M50.381 23.345h-8.698v5.242h8.698v-5.242z"></path>
      <path fill="#133b53" style="fill: var(--color4, #133b53)" d="M43.548 23.69h-1.46v4.49h1.46v-4.49zM48.13 23.69h-4.156v4.49h4.156v-4.49zM50.016 23.69h-1.46v4.49h1.46v-4.49z"></path>
      <path fill="#9bb8cc" style="fill: var(--color3, #9bb8cc)" d="M50.381 23.264h-8.819l-0.101 5.323h0.223v-5.242h8.698v-0.081z"></path>
      <path fill="#9bb8cc" style="fill: var(--color3, #9bb8cc)" d="M41.683 28.546h8.698v0.122l-8.921 0.366v-0.488h0.223z"></path>
      <path fill="#133b53" style="fill: var(--color4, #133b53)" d="M28.221 23.69h-2.372v6.928h2.372v-6.928zM31.039 23.69h-2.372v6.928h2.372v-6.928zM33.837 23.69h-2.372v6.928h2.372v-6.928zM36.635 23.69h-2.372v6.928h2.372v-6.928z"></path>
      <path fill="#9bb8cc" style="fill: var(--color3, #9bb8cc)" d="M36.919 23.264h-11.637l-0.182 7.802h0.365v-7.721h11.455v-0.081z"></path>
      <path fill="#133b53" style="fill: var(--color4, #133b53)" d="M31.039 11.906h-2.372v6.928h2.372v-6.928zM33.837 11.906h-2.372v6.928h2.372v-6.928z"></path>
      <path fill="#9bb8cc" style="fill: var(--color3, #9bb8cc)" d="M34.222 11.479h-6.123l-0.182 7.782h0.365v-7.721h5.94v-0.061z"></path>
      <path fill="#133b53" style="fill: var(--color4, #133b53)" d="M37.466 19.22h-12.428v0.63h12.428v-0.63z"></path>
      <path fill="#9bb8cc" style="fill: var(--color3, #9bb8cc)" d="M37.466 19.85h-12.428v-0.63l-0.487 0.63v0.61l12.914-0.467v-0.142z"></path>
      <path fill="#7bbfba" style="fill: var(--color6, #7bbfba)" d="M25.788 17.473h-0.203v1.747h0.203v-1.747zM32.519 17.473h-0.203v1.747h0.203v-1.747zM30.269 17.473h-0.203v1.747h0.203v-1.747zM34.749 17.473h-0.203v1.747h0.203v-1.747zM28.019 17.473h-0.203v1.747h0.203v-1.747zM37 17.473h-0.203v1.747h0.203v-1.747z"></path>
      <path fill="#4a938c" style="fill: var(--color11, #4a938c)" d="M25.788 17.473h-0.203v0.163h0.203v-0.163zM32.519 17.473h-0.203v0.163h0.203v-0.163zM30.269 17.473h-0.203v0.163h0.203v-0.163zM34.749 17.473h-0.203v0.163h0.203v-0.163zM28.019 17.473h-0.203v0.163h0.203v-0.163zM37 17.473h-0.203v0.163h0.203v-0.163z"></path>
      <path fill="#7bbfba" style="fill: var(--color6, #7bbfba)" d="M37.182 17.473h-11.88v-0.447l11.88 0.102v0.345z"></path>
      <path fill="#b6ccd8" style="fill: var(--color12, #b6ccd8)" d="M9.204 30.151h-6.913v0.264h6.913v-0.264zM9.204 31.228h-6.913v0.264h6.913v-0.264z"></path>
      <path fill="#fff" style="fill: var(--color1, #fff)" d="M3.021 31.878h-0.466c-0.020 0-0.061-0.020-0.061-0.041v-2.011c0-0.020 0-0.020 0.020-0.020l0.243-0.284c0.011-0.010 0.025-0.015 0.041-0.015s0.030 0.006 0.041 0.015l-0-0 0.243 0.284 0.020 0.020v2.011c-0.041 0.020-0.061 0.041-0.081 0.041zM3.994 31.878h-0.466c-0.020 0-0.061-0.020-0.061-0.041v-2.011c0-0.020 0-0.020 0.020-0.020l0.243-0.284c0.011-0.009 0.025-0.015 0.041-0.015s0.030 0.006 0.041 0.015l-0-0 0.243 0.284 0.020 0.020v2.011c-0.020 0.020-0.040 0.041-0.081 0.041zM4.967 31.878h-0.466c-0.020 0-0.061-0.020-0.061-0.041v-2.011c0-0.020 0-0.020 0.020-0.020l0.243-0.284c0.011-0.010 0.025-0.015 0.041-0.015s0.030 0.006 0.041 0.015l-0-0 0.243 0.284 0.020 0.020v2.011c-0.020 0.020-0.041 0.041-0.081 0.041zM5.96 31.878h-0.466c-0.020 0-0.061-0.020-0.061-0.041v-2.011c0-0.020 0-0.020 0.020-0.020l0.243-0.284c0.011-0.010 0.025-0.015 0.041-0.015s0.030 0.006 0.041 0.015l-0-0 0.243 0.284 0.020 0.020v2.011c-0.040 0.020-0.061 0.041-0.081 0.041zM6.934 31.878h-0.466c-0.020 0-0.061-0.020-0.061-0.041v-2.011c0-0.020 0-0.020 0.020-0.020l0.243-0.284c0.011-0.009 0.025-0.015 0.040-0.015s0.030 0.006 0.041 0.015l-0-0 0.243 0.284 0.020 0.020v2.011c-0.020 0.020-0.061 0.041-0.081 0.041zM7.907 31.878h-0.466c-0.020 0-0.061-0.020-0.061-0.041v-2.011c0-0.020 0-0.020 0.020-0.020l0.243-0.284c0.011-0.009 0.025-0.015 0.041-0.015s0.030 0.006 0.041 0.015l-0-0 0.243 0.284 0.020 0.020v2.011c-0.020 0.020-0.040 0.041-0.081 0.041zM8.9 31.878h-0.466c-0.020 0-0.061-0.020-0.061-0.041v-2.011c0-0.020 0-0.020 0.020-0.020l0.243-0.284c0.011-0.009 0.025-0.015 0.041-0.015s0.030 0.006 0.041 0.015l-0-0 0.243 0.284 0.020 0.020v2.011c-0.040 0.020-0.061 0.041-0.081 0.041z"></path>
      <path fill="#b6ccd8" style="fill: var(--color12, #b6ccd8)" d="M61.714 30.151h-9.792v0.264h9.792v-0.264zM61.714 31.228h-9.792v0.264h9.792v-0.264z"></path>
      <path fill="#fff" style="fill: var(--color1, #fff)" d="M52.672 31.878h-0.466c-0.020 0-0.061-0.020-0.061-0.041v-2.011c0-0.020 0-0.020 0.020-0.020l0.243-0.284c0.011-0.009 0.025-0.015 0.041-0.015s0.030 0.006 0.041 0.015l-0-0 0.243 0.284 0.020 0.020v2.011c-0.041 0.020-0.061 0.041-0.081 0.041zM53.645 31.878h-0.466c-0.020 0-0.061-0.020-0.061-0.041v-2.011c0-0.020 0-0.020 0.020-0.020l0.243-0.284c0.011-0.009 0.025-0.015 0.041-0.015s0.030 0.006 0.041 0.015l-0-0 0.243 0.284 0.020 0.020v2.011c-0.041 0.020-0.061 0.041-0.081 0.041zM54.618 31.878h-0.466c-0.020 0-0.061-0.020-0.061-0.041v-2.011c0-0.020 0-0.020 0.020-0.020l0.243-0.284c0.020-0.020 0.061-0.020 0.081 0l0.243 0.284 0.020 0.020v2.011c-0.020 0.020-0.041 0.041-0.081 0.041zM55.591 31.878h-0.466c-0.020 0-0.061-0.020-0.061-0.041v-2.011c0-0.020 0-0.020 0.020-0.020l0.243-0.284c0.011-0.009 0.025-0.015 0.041-0.015s0.030 0.006 0.041 0.015l-0-0 0.243 0.284 0.020 0.020v2.011c-0.020 0.020-0.041 0.041-0.081 0.041zM56.584 31.878h-0.466c-0.020 0-0.061-0.020-0.061-0.041v-2.011c0-0.020 0-0.020 0.020-0.020l0.243-0.284c0.020-0.020 0.061-0.020 0.081 0l0.243 0.284 0.020 0.020v2.011c-0.041 0.020-0.061 0.041-0.081 0.041zM57.558 31.878h-0.466c-0.020 0-0.061-0.020-0.061-0.041v-2.011c0-0.020 0-0.020 0.020-0.020l0.243-0.284c0.011-0.009 0.025-0.015 0.041-0.015s0.030 0.006 0.041 0.015l-0-0 0.243 0.284 0.020 0.020v2.011c-0.020 0.020-0.061 0.041-0.081 0.041zM58.531 31.878h-0.466c-0.020 0-0.061-0.020-0.061-0.041v-2.011c0-0.020 0-0.020 0.020-0.020l0.243-0.284c0.020-0.020 0.061-0.020 0.081 0l0.243 0.284 0.020 0.020v2.011c-0.020 0.020-0.041 0.041-0.081 0.041zM59.524 31.878h-0.466c-0.020 0-0.061-0.020-0.061-0.041v-2.011c0-0.020 0-0.020 0.020-0.020l0.243-0.284c0.020-0.020 0.061-0.020 0.081 0l0.243 0.284 0.020 0.020v2.011c-0.041 0.020-0.061 0.041-0.081 0.041zM60.497 31.878h-0.466c-0.020 0-0.061-0.020-0.061-0.041v-2.011c0-0.020 0-0.020 0.020-0.020l0.243-0.284c0.011-0.009 0.025-0.015 0.041-0.015s0.030 0.006 0.041 0.015l-0-0 0.243 0.284 0.020 0.020v2.011c-0.041 0.020-0.061 0.041-0.081 0.041zM61.471 31.878h-0.466c-0.020 0-0.061-0.020-0.061-0.041v-2.011c0-0.020 0-0.020 0.020-0.020l0.243-0.284c0.011-0.009 0.025-0.015 0.041-0.015s0.030 0.006 0.041 0.015l-0-0 0.243 0.284 0.020 0.020v2.011c-0.020 0.020-0.061 0.041-0.081 0.041z"></path>
      <path fill="#133b53" style="fill: var(--color4, #133b53)" d="M62.667 31.797h-61.025v0.203h61.025v-0.203z"></path>
</symbol>
<symbol id="icon-agent-mail" viewBox="0 0 32 32">
<path stroke-linejoin="round" stroke-linecap="round" stroke-miterlimit="4" stroke-width="2" d="M23.869 11.801l-6.536 5.532c-0.667 0.667-1.547 0.888-2.667 0l-6.509-5.532"></path>
<path stroke-linejoin="miter" stroke-linecap="butt" stroke-miterlimit="4" stroke-width="2" d="M5.333 3.667h21.333c1.657 0 3 1.343 3 3v18.667c0 1.657-1.343 3-3 3h-21.333c-1.657 0-3-1.343-3-3v-18.667c0-1.657 1.343-3 3-3z"></path>
</symbol>
<symbol id="icon-agent-phone" viewBox="0 0 32 32">
<path stroke-linejoin="round" stroke-linecap="round" stroke-miterlimit="4" stroke-width="2" d="M15.376 16.629c5.319 5.317 6.525-0.833 9.912 2.551 3.264 3.264 5.141 3.917 1.004 8.053-0.517 0.416-3.809 5.427-15.379-6.14-11.571-11.568-6.564-14.864-6.148-15.381 4.147-4.147 4.789-2.26 8.053 1.004 3.387 3.387-2.761 4.596 2.557 9.913z"></path>
</symbol>
  </defs>
</svg>
